<mxfile host="65bd71144e">
    <diagram id="4QBaLQg5Kx6ioxzO_ROW" name="TongQuat">
        <mxGraphModel dx="1258" dy="902" grid="1" gridSize="10" guides="1" tooltips="1" connect="1" arrows="1" fold="1" page="1" pageScale="1" pageWidth="1169" pageHeight="827" math="0" shadow="0">
            <root>
                <mxCell id="0"/>
                <mxCell id="1" parent="0"/>
                <mxCell id="18" value="" style="edgeStyle=none;html=1;fontFamily=Times New Roman;verticalAlign=middle;" parent="1" source="16" target="17" edge="1">
                    <mxGeometry relative="1" as="geometry"/>
                </mxCell>
                <mxCell id="20" value="" style="edgeStyle=none;html=1;fontFamily=Times New Roman;verticalAlign=middle;" parent="1" source="16" target="19" edge="1">
                    <mxGeometry relative="1" as="geometry"/>
                </mxCell>
                <mxCell id="21" value="" style="edgeStyle=none;html=1;fontFamily=Times New Roman;verticalAlign=middle;" parent="1" source="16" target="19" edge="1">
                    <mxGeometry relative="1" as="geometry"/>
                </mxCell>
                <mxCell id="22" value="" style="edgeStyle=none;html=1;fontFamily=Times New Roman;verticalAlign=middle;" parent="1" source="16" target="19" edge="1">
                    <mxGeometry relative="1" as="geometry"/>
                </mxCell>
                <mxCell id="25" value="" style="edgeStyle=none;html=1;fontFamily=Times New Roman;verticalAlign=middle;" parent="1" source="16" target="24" edge="1">
                    <mxGeometry relative="1" as="geometry"/>
                </mxCell>
                <mxCell id="27" value="" style="edgeStyle=none;html=1;fontFamily=Times New Roman;verticalAlign=middle;" parent="1" source="16" target="26" edge="1">
                    <mxGeometry relative="1" as="geometry"/>
                </mxCell>
                <mxCell id="30" value="" style="edgeStyle=none;html=1;fontFamily=Times New Roman;entryX=1;entryY=0.5;entryDx=0;entryDy=0;verticalAlign=middle;" parent="1" source="16" target="29" edge="1">
                    <mxGeometry relative="1" as="geometry">
                        <mxPoint x="228.65053622433084" y="374.73338833070056" as="targetPoint"/>
                    </mxGeometry>
                </mxCell>
                <mxCell id="32" value="" style="edgeStyle=none;html=1;fontFamily=Times New Roman;verticalAlign=middle;" parent="1" source="16" target="31" edge="1">
                    <mxGeometry relative="1" as="geometry"/>
                </mxCell>
                <mxCell id="36" value="" style="edgeStyle=none;html=1;fontFamily=Times New Roman;verticalAlign=middle;" parent="1" source="16" target="35" edge="1">
                    <mxGeometry relative="1" as="geometry"/>
                </mxCell>
                <mxCell id="39" value="" style="edgeStyle=none;html=1;fontFamily=Times New Roman;verticalAlign=middle;" parent="1" source="16" target="38" edge="1">
                    <mxGeometry relative="1" as="geometry"/>
                </mxCell>
                <mxCell id="41" value="" style="edgeStyle=none;html=1;fontFamily=Times New Roman;verticalAlign=middle;" parent="1" source="16" target="40" edge="1">
                    <mxGeometry relative="1" as="geometry"/>
                </mxCell>
                <mxCell id="44" value="" style="edgeStyle=none;html=1;fontFamily=Times New Roman;verticalAlign=middle;" parent="1" source="16" target="43" edge="1">
                    <mxGeometry relative="1" as="geometry"/>
                </mxCell>
                <mxCell id="71" value="" style="edgeStyle=none;html=1;fontFamily=Times New Roman;verticalAlign=middle;" parent="1" source="16" target="70" edge="1">
                    <mxGeometry relative="1" as="geometry"/>
                </mxCell>
                <mxCell id="73" value="" style="edgeStyle=none;html=1;fontFamily=Times New Roman;verticalAlign=middle;" parent="1" source="16" target="72" edge="1">
                    <mxGeometry relative="1" as="geometry"/>
                </mxCell>
                <mxCell id="16" value="User" style="shape=umlActor;verticalLabelPosition=bottom;verticalAlign=middle;html=1;outlineConnect=0;fontFamily=Times New Roman;" parent="1" vertex="1">
                    <mxGeometry x="410" y="339" width="30" height="60" as="geometry"/>
                </mxCell>
                <mxCell id="17" value="&lt;font&gt;Đăng ký&lt;/font&gt;" style="ellipse;whiteSpace=wrap;html=1;verticalAlign=middle;fontFamily=Times New Roman;" parent="1" vertex="1">
                    <mxGeometry x="350" y="200" width="100" height="30" as="geometry"/>
                </mxCell>
                <mxCell id="19" value="&lt;font&gt;Nhắn tin&lt;/font&gt;" style="ellipse;whiteSpace=wrap;html=1;verticalAlign=middle;fontFamily=Times New Roman;" parent="1" vertex="1">
                    <mxGeometry x="280" y="230" width="85" height="30" as="geometry"/>
                </mxCell>
                <mxCell id="24" value="Tìm kiếm sản phẩm" style="ellipse;whiteSpace=wrap;html=1;verticalAlign=middle;fontFamily=Times New Roman;" parent="1" vertex="1">
                    <mxGeometry x="210" y="260" width="90" height="40" as="geometry"/>
                </mxCell>
                <mxCell id="26" value="Xem chi tiết sản phẩm" style="ellipse;whiteSpace=wrap;html=1;verticalAlign=middle;fontFamily=Times New Roman;" parent="1" vertex="1">
                    <mxGeometry x="150" y="300" width="105" height="40" as="geometry"/>
                </mxCell>
                <mxCell id="29" value="Xem và quản lý giỏ hàng" style="ellipse;whiteSpace=wrap;html=1;verticalAlign=middle;fontFamily=Times New Roman;" parent="1" vertex="1">
                    <mxGeometry x="90" y="350" width="95" height="40" as="geometry"/>
                </mxCell>
                <mxCell id="31" value="Đặt hàng" style="ellipse;whiteSpace=wrap;html=1;verticalAlign=middle;fontFamily=Times New Roman;" parent="1" vertex="1">
                    <mxGeometry x="150" y="400.5" width="65" height="29" as="geometry"/>
                </mxCell>
                <mxCell id="35" value="Theo dõi đơn hàng" style="ellipse;whiteSpace=wrap;html=1;verticalAlign=middle;fontFamily=Times New Roman;" parent="1" vertex="1">
                    <mxGeometry x="165" y="440" width="90" height="40" as="geometry"/>
                </mxCell>
                <mxCell id="38" value="Xem blog" style="ellipse;whiteSpace=wrap;html=1;verticalAlign=middle;fontFamily=Times New Roman;" parent="1" vertex="1">
                    <mxGeometry x="205" y="490" width="75" height="30" as="geometry"/>
                </mxCell>
                <mxCell id="40" value="Đánh giá sản phẩm" style="ellipse;whiteSpace=wrap;html=1;verticalAlign=middle;fontFamily=Times New Roman;" parent="1" vertex="1">
                    <mxGeometry x="255" y="520" width="90" height="40" as="geometry"/>
                </mxCell>
                <mxCell id="43" value="Gửi phản hồi cho admin" style="ellipse;whiteSpace=wrap;html=1;verticalAlign=middle;fontFamily=Times New Roman;" parent="1" vertex="1">
                    <mxGeometry x="320" y="560" width="85" height="40" as="geometry"/>
                </mxCell>
                <mxCell id="50" value="" style="edgeStyle=none;html=1;fontFamily=Times New Roman;verticalAlign=middle;" parent="1" source="48" target="49" edge="1">
                    <mxGeometry relative="1" as="geometry"/>
                </mxCell>
                <mxCell id="53" value="" style="edgeStyle=none;html=1;fontFamily=Times New Roman;verticalAlign=middle;" parent="1" source="48" target="52" edge="1">
                    <mxGeometry relative="1" as="geometry"/>
                </mxCell>
                <mxCell id="55" value="" style="edgeStyle=none;html=1;fontFamily=Times New Roman;verticalAlign=middle;" parent="1" source="48" target="54" edge="1">
                    <mxGeometry relative="1" as="geometry"/>
                </mxCell>
                <mxCell id="56" value="" style="edgeStyle=none;html=1;fontFamily=Times New Roman;verticalAlign=middle;" parent="1" source="48" target="54" edge="1">
                    <mxGeometry relative="1" as="geometry"/>
                </mxCell>
                <mxCell id="58" value="" style="edgeStyle=none;html=1;fontFamily=Times New Roman;verticalAlign=middle;" parent="1" source="48" target="57" edge="1">
                    <mxGeometry relative="1" as="geometry"/>
                </mxCell>
                <mxCell id="61" value="" style="edgeStyle=none;html=1;fontFamily=Times New Roman;verticalAlign=middle;" parent="1" source="48" target="60" edge="1">
                    <mxGeometry relative="1" as="geometry"/>
                </mxCell>
                <mxCell id="63" value="" style="edgeStyle=none;html=1;fontFamily=Times New Roman;verticalAlign=middle;" parent="1" source="48" target="62" edge="1">
                    <mxGeometry relative="1" as="geometry"/>
                </mxCell>
                <mxCell id="65" value="" style="edgeStyle=none;html=1;fontFamily=Times New Roman;verticalAlign=middle;" parent="1" source="48" target="64" edge="1">
                    <mxGeometry relative="1" as="geometry"/>
                </mxCell>
                <mxCell id="67" value="" style="edgeStyle=none;html=1;fontFamily=Times New Roman;verticalAlign=middle;" parent="1" source="48" target="66" edge="1">
                    <mxGeometry relative="1" as="geometry"/>
                </mxCell>
                <mxCell id="69" value="" style="edgeStyle=none;html=1;fontFamily=Times New Roman;verticalAlign=middle;" parent="1" source="48" target="68" edge="1">
                    <mxGeometry relative="1" as="geometry"/>
                </mxCell>
                <mxCell id="76" style="edgeStyle=none;html=1;fontFamily=Times New Roman;verticalAlign=middle;" parent="1" target="70" edge="1">
                    <mxGeometry relative="1" as="geometry">
                        <mxPoint x="680" y="370" as="sourcePoint"/>
                    </mxGeometry>
                </mxCell>
                <mxCell id="77" style="edgeStyle=none;html=1;entryX=1.009;entryY=0.272;entryDx=0;entryDy=0;fontFamily=Times New Roman;entryPerimeter=0;verticalAlign=middle;" parent="1" source="48" target="72" edge="1">
                    <mxGeometry relative="1" as="geometry"/>
                </mxCell>
                <mxCell id="48" value="Admin" style="shape=umlActor;verticalLabelPosition=bottom;verticalAlign=middle;html=1;outlineConnect=0;fontFamily=Times New Roman;" parent="1" vertex="1">
                    <mxGeometry x="680" y="339" width="30" height="60" as="geometry"/>
                </mxCell>
                <mxCell id="49" value="Thống kê" style="ellipse;whiteSpace=wrap;html=1;fontFamily=Times New Roman;verticalAlign=middle;" parent="1" vertex="1">
                    <mxGeometry x="700" y="202.25" width="82.5" height="25.5" as="geometry"/>
                </mxCell>
                <mxCell id="52" value="Quản lý sản phẩm" style="ellipse;whiteSpace=wrap;html=1;fontFamily=Times New Roman;verticalAlign=middle;" parent="1" vertex="1">
                    <mxGeometry x="770" y="224.5" width="75" height="41" as="geometry"/>
                </mxCell>
                <mxCell id="54" value="Quản lý thể loại" style="ellipse;whiteSpace=wrap;html=1;fontFamily=Times New Roman;verticalAlign=middle;" parent="1" vertex="1">
                    <mxGeometry x="840" y="260" width="70" height="41" as="geometry"/>
                </mxCell>
                <mxCell id="57" value="Quản lý user" style="ellipse;whiteSpace=wrap;html=1;fontFamily=Times New Roman;verticalAlign=middle;" parent="1" vertex="1">
                    <mxGeometry x="890" y="298" width="60" height="41" as="geometry"/>
                </mxCell>
                <mxCell id="60" value="Quản lý blog" style="ellipse;whiteSpace=wrap;html=1;fontFamily=Times New Roman;verticalAlign=middle;" parent="1" vertex="1">
                    <mxGeometry x="930" y="340" width="57.5" height="41" as="geometry"/>
                </mxCell>
                <mxCell id="62" value="Quản lý đánh giá" style="ellipse;whiteSpace=wrap;html=1;fontFamily=Times New Roman;verticalAlign=middle;" parent="1" vertex="1">
                    <mxGeometry x="875" y="381" width="75" height="41" as="geometry"/>
                </mxCell>
                <mxCell id="64" value="Quản lý mã giảm giá" style="ellipse;whiteSpace=wrap;html=1;fontFamily=Times New Roman;verticalAlign=middle;" parent="1" vertex="1">
                    <mxGeometry x="845" y="429.5" width="75" height="51" as="geometry"/>
                </mxCell>
                <mxCell id="66" value="Quản lý đơn hàng" style="ellipse;whiteSpace=wrap;html=1;fontFamily=Times New Roman;verticalAlign=middle;" parent="1" vertex="1">
                    <mxGeometry x="765" y="474.5" width="75" height="41" as="geometry"/>
                </mxCell>
                <mxCell id="68" value="Nhận thông báo&amp;nbsp;" style="ellipse;whiteSpace=wrap;html=1;fontFamily=Times New Roman;verticalAlign=middle;" parent="1" vertex="1">
                    <mxGeometry x="700" y="509" width="75" height="51" as="geometry"/>
                </mxCell>
                <mxCell id="70" value="Đăng nhập" style="ellipse;whiteSpace=wrap;html=1;fontFamily=Times New Roman;verticalAlign=middle;" parent="1" vertex="1">
                    <mxGeometry x="520" y="330" width="80" height="30" as="geometry"/>
                </mxCell>
                <mxCell id="72" value="Đăng xuất" style="ellipse;whiteSpace=wrap;html=1;fontFamily=Times New Roman;verticalAlign=middle;" parent="1" vertex="1">
                    <mxGeometry x="520" y="388" width="80" height="34" as="geometry"/>
                </mxCell>
            </root>
        </mxGraphModel>
    </diagram>
    <diagram id="YP1EtYbVHQMz5fKyCDBv" name="sign up">
        <mxGraphModel dx="1144" dy="820" grid="1" gridSize="10" guides="1" tooltips="1" connect="1" arrows="1" fold="1" page="1" pageScale="1" pageWidth="1169" pageHeight="827" math="0" shadow="0">
            <root>
                <mxCell id="0"/>
                <mxCell id="1" parent="0"/>
                <mxCell id="BZfo6nK0d5zDt5c84dEf-1" style="edgeStyle=none;html=1;entryX=0;entryY=0.5;entryDx=0;entryDy=0;fontFamily=Times New Roman;fontSize=14;" parent="1" source="5xi_91hP6xAVd4e9cbvJ-1" target="5xi_91hP6xAVd4e9cbvJ-2" edge="1">
                    <mxGeometry relative="1" as="geometry"/>
                </mxCell>
                <mxCell id="5xi_91hP6xAVd4e9cbvJ-1" value="User" style="shape=umlActor;verticalLabelPosition=bottom;verticalAlign=top;html=1;outlineConnect=0;fontFamily=Times New Roman;fontSize=14;" parent="1" vertex="1">
                    <mxGeometry x="210" y="350" width="30" height="60" as="geometry"/>
                </mxCell>
                <mxCell id="5xi_91hP6xAVd4e9cbvJ-2" value="Đăng ký tài khoản" style="whiteSpace=wrap;html=1;verticalAlign=top;fontFamily=Times New Roman;fontSize=14;" parent="1" vertex="1">
                    <mxGeometry x="320" y="200" width="520" height="360" as="geometry"/>
                </mxCell>
                <mxCell id="nm_5P-WVLHnGU1hL7-7m-7" value="" style="ellipse;whiteSpace=wrap;html=1;rounded=0;fontFamily=Times New Roman;fontSize=14;fontColor=default;fillColor=none;gradientColor=none;" parent="1" vertex="1">
                    <mxGeometry x="350" y="390" width="210" height="110" as="geometry"/>
                </mxCell>
                <mxCell id="BZfo6nK0d5zDt5c84dEf-2" style="edgeStyle=none;html=1;entryX=0.5;entryY=1;entryDx=0;entryDy=0;exitX=0.5;exitY=0;exitDx=0;exitDy=0;fontFamily=Times New Roman;fontSize=14;dashed=1;" parent="1" source="nm_5P-WVLHnGU1hL7-7m-7" target="dnPjiPpbpPMsEFvn63Sl-3" edge="1">
                    <mxGeometry relative="1" as="geometry"/>
                </mxCell>
                <mxCell id="nm_5P-WVLHnGU1hL7-7m-8" value="Đăng ký tài khoản" style="text;html=1;strokeColor=none;fillColor=none;align=center;verticalAlign=middle;whiteSpace=wrap;rounded=0;fontFamily=Times New Roman;fontSize=14;fontColor=default;" parent="1" vertex="1">
                    <mxGeometry x="380" y="400" width="150" height="20" as="geometry"/>
                </mxCell>
                <mxCell id="dnPjiPpbpPMsEFvn63Sl-3" value="" style="ellipse;whiteSpace=wrap;html=1;fontFamily=Times New Roman;fontSize=14;" parent="1" vertex="1">
                    <mxGeometry x="382.5" y="230" width="145" height="70" as="geometry"/>
                </mxCell>
                <mxCell id="dnPjiPpbpPMsEFvn63Sl-4" value="Kiểm tra mail đã tồn tại chưa" style="text;html=1;strokeColor=none;fillColor=none;align=center;verticalAlign=middle;whiteSpace=wrap;rounded=0;fontFamily=Times New Roman;fontSize=14;" parent="1" vertex="1">
                    <mxGeometry x="395" y="245" width="120" height="40" as="geometry"/>
                </mxCell>
                <mxCell id="dnPjiPpbpPMsEFvn63Sl-10" value="&amp;lt;&amp;lt;include&amp;gt;&amp;gt;" style="text;html=1;strokeColor=none;fillColor=none;align=center;verticalAlign=middle;whiteSpace=wrap;rounded=0;rotation=0;fontFamily=Times New Roman;fontSize=14;" parent="1" vertex="1">
                    <mxGeometry x="460" y="320" width="60" height="30" as="geometry"/>
                </mxCell>
                <mxCell id="BZfo6nK0d5zDt5c84dEf-3" style="edgeStyle=none;html=1;fontFamily=Times New Roman;fontSize=14;dashed=1;" parent="1" source="dnPjiPpbpPMsEFvn63Sl-11" target="nm_5P-WVLHnGU1hL7-7m-7" edge="1">
                    <mxGeometry relative="1" as="geometry"/>
                </mxCell>
                <mxCell id="dnPjiPpbpPMsEFvn63Sl-11" value="Đăng ký bằng gmail" style="ellipse;whiteSpace=wrap;html=1;fontFamily=Times New Roman;fontSize=14;" parent="1" vertex="1">
                    <mxGeometry x="670" y="420" width="130" height="50" as="geometry"/>
                </mxCell>
                <mxCell id="dnPjiPpbpPMsEFvn63Sl-15" value="&lt;b style=&quot;font-size: 14px;&quot;&gt;extension points&lt;/b&gt;" style="text;html=1;strokeColor=none;fillColor=none;align=center;verticalAlign=middle;whiteSpace=wrap;rounded=0;fontFamily=Times New Roman;fontSize=14;" parent="1" vertex="1">
                    <mxGeometry x="370" y="435" width="160" height="15" as="geometry"/>
                </mxCell>
                <mxCell id="dnPjiPpbpPMsEFvn63Sl-16" value="Đăng ký bằng gmail" style="text;html=1;strokeColor=none;fillColor=none;align=center;verticalAlign=middle;whiteSpace=wrap;rounded=0;fontFamily=Times New Roman;fontSize=14;" parent="1" vertex="1">
                    <mxGeometry x="405" y="455" width="110" height="35" as="geometry"/>
                </mxCell>
                <mxCell id="dnPjiPpbpPMsEFvn63Sl-18" value="&amp;lt;&amp;lt;Extend&amp;gt;&amp;gt;" style="text;html=1;strokeColor=none;fillColor=none;align=center;verticalAlign=middle;whiteSpace=wrap;rounded=0;fontFamily=Times New Roman;fontSize=14;" parent="1" vertex="1">
                    <mxGeometry x="585" y="420" width="60" height="30" as="geometry"/>
                </mxCell>
                <mxCell id="9BCZuaM5bWWblNjtig7Q-2" value="" style="endArrow=none;html=1;exitX=0.048;exitY=0.273;exitDx=0;exitDy=0;exitPerimeter=0;entryX=0.948;entryY=0.264;entryDx=0;entryDy=0;entryPerimeter=0;fontFamily=Times New Roman;fontSize=14;" parent="1" source="nm_5P-WVLHnGU1hL7-7m-7" target="nm_5P-WVLHnGU1hL7-7m-7" edge="1">
                    <mxGeometry width="50" height="50" relative="1" as="geometry">
                        <mxPoint x="360" y="430" as="sourcePoint"/>
                        <mxPoint x="410" y="380" as="targetPoint"/>
                    </mxGeometry>
                </mxCell>
            </root>
        </mxGraphModel>
    </diagram>
    <diagram id="Mbvfm8ZmIGthfklmhw3I" name="profile">
        <mxGraphModel dx="1258" dy="902" grid="1" gridSize="10" guides="1" tooltips="1" connect="1" arrows="1" fold="1" page="1" pageScale="1" pageWidth="1169" pageHeight="827" math="0" shadow="0">
            <root>
                <mxCell id="0"/>
                <mxCell id="1" parent="0"/>
                <mxCell id="1M5nZqwNB77-Wq1WkfoH-13" style="edgeStyle=none;html=1;entryX=0;entryY=0.5;entryDx=0;entryDy=0;fontFamily=Times New Roman;fontSize=14;" parent="1" source="cRSInWEpSz7p8BNWspAq-1" target="cRSInWEpSz7p8BNWspAq-2" edge="1">
                    <mxGeometry relative="1" as="geometry"/>
                </mxCell>
                <mxCell id="cRSInWEpSz7p8BNWspAq-1" value="User" style="shape=umlActor;verticalLabelPosition=bottom;verticalAlign=top;html=1;outlineConnect=0;fontFamily=Times New Roman;fontSize=14;" parent="1" vertex="1">
                    <mxGeometry x="120" y="390" width="30" height="60" as="geometry"/>
                </mxCell>
                <mxCell id="cRSInWEpSz7p8BNWspAq-2" value="Quản lý thông tin cá nhân" style="whiteSpace=wrap;html=1;verticalAlign=top;fontFamily=Times New Roman;fontSize=14;" parent="1" vertex="1">
                    <mxGeometry x="240" y="160" width="640" height="520" as="geometry"/>
                </mxCell>
                <mxCell id="cRSInWEpSz7p8BNWspAq-3" value="" style="ellipse;whiteSpace=wrap;html=1;rounded=0;fontFamily=Times New Roman;fontSize=14;fontColor=default;fillColor=none;gradientColor=none;" parent="1" vertex="1">
                    <mxGeometry x="345" y="377.5" width="230" height="160" as="geometry"/>
                </mxCell>
                <mxCell id="cRSInWEpSz7p8BNWspAq-4" value="Quản lý thông tin" style="text;html=1;strokeColor=none;fillColor=none;align=center;verticalAlign=middle;whiteSpace=wrap;rounded=0;fontFamily=Times New Roman;fontSize=14;fontColor=default;" parent="1" vertex="1">
                    <mxGeometry x="385" y="390" width="150" height="20" as="geometry"/>
                </mxCell>
                <mxCell id="cRSInWEpSz7p8BNWspAq-5" value="" style="ellipse;whiteSpace=wrap;html=1;fontFamily=Times New Roman;fontSize=14;" parent="1" vertex="1">
                    <mxGeometry x="390" y="240" width="120" height="60" as="geometry"/>
                </mxCell>
                <mxCell id="cRSInWEpSz7p8BNWspAq-6" value="Login" style="text;html=1;strokeColor=none;fillColor=none;align=center;verticalAlign=middle;whiteSpace=wrap;rounded=0;fontFamily=Times New Roman;fontSize=14;" parent="1" vertex="1">
                    <mxGeometry x="400" y="260" width="100" height="20" as="geometry"/>
                </mxCell>
                <mxCell id="cRSInWEpSz7p8BNWspAq-7" value="&amp;lt;&amp;lt;include&amp;gt;&amp;gt;" style="text;html=1;strokeColor=none;fillColor=none;align=center;verticalAlign=middle;whiteSpace=wrap;rounded=0;fontFamily=Times New Roman;fontSize=14;" parent="1" vertex="1">
                    <mxGeometry x="465" y="320" width="60" height="30" as="geometry"/>
                </mxCell>
                <mxCell id="1M5nZqwNB77-Wq1WkfoH-8" style="edgeStyle=none;html=1;exitX=0;exitY=0.5;exitDx=0;exitDy=0;entryX=0.935;entryY=0.328;entryDx=0;entryDy=0;entryPerimeter=0;fontFamily=Times New Roman;fontSize=14;dashed=1;" parent="1" source="cRSInWEpSz7p8BNWspAq-8" target="cRSInWEpSz7p8BNWspAq-3" edge="1">
                    <mxGeometry relative="1" as="geometry"/>
                </mxCell>
                <mxCell id="cRSInWEpSz7p8BNWspAq-8" value="Xem thông tin" style="ellipse;whiteSpace=wrap;html=1;fontFamily=Times New Roman;fontSize=14;" parent="1" vertex="1">
                    <mxGeometry x="710" y="372" width="110" height="56" as="geometry"/>
                </mxCell>
                <mxCell id="cRSInWEpSz7p8BNWspAq-9" value="&lt;b style=&quot;font-size: 14px;&quot;&gt;extension points&lt;/b&gt;" style="text;html=1;strokeColor=none;fillColor=none;align=center;verticalAlign=middle;whiteSpace=wrap;rounded=0;fontFamily=Times New Roman;fontSize=14;" parent="1" vertex="1">
                    <mxGeometry x="375" y="450" width="160" height="15" as="geometry"/>
                </mxCell>
                <mxCell id="cRSInWEpSz7p8BNWspAq-10" value="Xem, sửa thông tin&amp;nbsp;" style="text;html=1;strokeColor=none;fillColor=none;align=center;verticalAlign=middle;whiteSpace=wrap;rounded=0;fontFamily=Times New Roman;fontSize=14;" parent="1" vertex="1">
                    <mxGeometry x="395" y="465" width="130" height="55" as="geometry"/>
                </mxCell>
                <mxCell id="cRSInWEpSz7p8BNWspAq-11" value="&amp;lt;&amp;lt;Extend&amp;gt;&amp;gt;" style="text;html=1;strokeColor=none;fillColor=none;align=center;verticalAlign=middle;whiteSpace=wrap;rounded=0;rotation=-15;fontFamily=Times New Roman;fontSize=14;" parent="1" vertex="1">
                    <mxGeometry x="600" y="384" width="60" height="30" as="geometry"/>
                </mxCell>
                <mxCell id="1M5nZqwNB77-Wq1WkfoH-2" value="" style="endArrow=none;html=1;entryX=0.943;entryY=0.272;entryDx=0;entryDy=0;entryPerimeter=0;fontFamily=Times New Roman;fontSize=14;" parent="1" target="cRSInWEpSz7p8BNWspAq-3" edge="1">
                    <mxGeometry width="50" height="50" relative="1" as="geometry">
                        <mxPoint x="360" y="420" as="sourcePoint"/>
                        <mxPoint x="410" y="370" as="targetPoint"/>
                    </mxGeometry>
                </mxCell>
                <mxCell id="1M5nZqwNB77-Wq1WkfoH-3" value="&amp;lt;&amp;lt;Extend&amp;gt;&amp;gt;" style="text;html=1;strokeColor=none;fillColor=none;align=center;verticalAlign=middle;whiteSpace=wrap;rounded=0;rotation=15;fontFamily=Times New Roman;fontSize=14;" parent="1" vertex="1">
                    <mxGeometry x="630" y="490" width="60" height="30" as="geometry"/>
                </mxCell>
                <mxCell id="1M5nZqwNB77-Wq1WkfoH-4" value="&amp;lt;&amp;lt;Include&amp;gt;&amp;gt;" style="text;html=1;strokeColor=none;fillColor=none;align=center;verticalAlign=middle;whiteSpace=wrap;rounded=0;rotation=-15;fontFamily=Times New Roman;fontSize=14;" parent="1" vertex="1">
                    <mxGeometry x="640" y="550" width="60" height="30" as="geometry"/>
                </mxCell>
                <mxCell id="1M5nZqwNB77-Wq1WkfoH-9" style="edgeStyle=none;html=1;fontFamily=Times New Roman;fontSize=14;dashed=1;" parent="1" source="1M5nZqwNB77-Wq1WkfoH-5" target="cRSInWEpSz7p8BNWspAq-3" edge="1">
                    <mxGeometry relative="1" as="geometry"/>
                </mxCell>
                <mxCell id="1M5nZqwNB77-Wq1WkfoH-10" style="edgeStyle=none;html=1;entryX=1;entryY=0.5;entryDx=0;entryDy=0;fontFamily=Times New Roman;fontSize=14;dashed=1;" parent="1" source="1M5nZqwNB77-Wq1WkfoH-5" target="1M5nZqwNB77-Wq1WkfoH-6" edge="1">
                    <mxGeometry relative="1" as="geometry"/>
                </mxCell>
                <mxCell id="1M5nZqwNB77-Wq1WkfoH-5" value="Sửa thông tin" style="ellipse;whiteSpace=wrap;html=1;fontFamily=Times New Roman;fontSize=14;" parent="1" vertex="1">
                    <mxGeometry x="720" y="520" width="110" height="60" as="geometry"/>
                </mxCell>
                <mxCell id="1M5nZqwNB77-Wq1WkfoH-6" value="Nhập thông tin" style="ellipse;whiteSpace=wrap;html=1;fontFamily=Times New Roman;fontSize=14;" parent="1" vertex="1">
                    <mxGeometry x="500" y="570" width="120" height="50" as="geometry"/>
                </mxCell>
                <mxCell id="1M5nZqwNB77-Wq1WkfoH-7" value="" style="endArrow=classic;html=1;entryX=0.5;entryY=1;entryDx=0;entryDy=0;exitX=0.465;exitY=-0.003;exitDx=0;exitDy=0;exitPerimeter=0;fontFamily=Times New Roman;fontSize=14;dashed=1;" parent="1" source="cRSInWEpSz7p8BNWspAq-3" target="cRSInWEpSz7p8BNWspAq-5" edge="1">
                    <mxGeometry width="50" height="50" relative="1" as="geometry">
                        <mxPoint x="440" y="370" as="sourcePoint"/>
                        <mxPoint x="490" y="320" as="targetPoint"/>
                    </mxGeometry>
                </mxCell>
            </root>
        </mxGraphModel>
    </diagram>
    <diagram name="chatbot" id="vO9Wz-CVkKKVvJSi7sOh">
        <mxGraphModel dx="1258" dy="902" grid="1" gridSize="10" guides="1" tooltips="1" connect="1" arrows="1" fold="1" page="1" pageScale="1" pageWidth="1169" pageHeight="827" math="0" shadow="0">
            <root>
                <mxCell id="V8cRjmN9XUSk29RJIiwN-0"/>
                <mxCell id="V8cRjmN9XUSk29RJIiwN-1" parent="V8cRjmN9XUSk29RJIiwN-0"/>
                <mxCell id="V8cRjmN9XUSk29RJIiwN-2" style="edgeStyle=none;html=1;entryX=0;entryY=0.5;entryDx=0;entryDy=0;fontFamily=Times New Roman;fontSize=14;" parent="V8cRjmN9XUSk29RJIiwN-1" source="V8cRjmN9XUSk29RJIiwN-3" target="V8cRjmN9XUSk29RJIiwN-4" edge="1">
                    <mxGeometry relative="1" as="geometry"/>
                </mxCell>
                <mxCell id="V8cRjmN9XUSk29RJIiwN-3" value="User" style="shape=umlActor;verticalLabelPosition=bottom;verticalAlign=top;html=1;outlineConnect=0;fontFamily=Times New Roman;fontSize=14;" parent="V8cRjmN9XUSk29RJIiwN-1" vertex="1">
                    <mxGeometry x="200" y="390" width="30" height="60" as="geometry"/>
                </mxCell>
                <mxCell id="V8cRjmN9XUSk29RJIiwN-4" value="Chatbot" style="whiteSpace=wrap;html=1;verticalAlign=top;fontFamily=Times New Roman;fontSize=14;" parent="V8cRjmN9XUSk29RJIiwN-1" vertex="1">
                    <mxGeometry x="320" y="200" width="640" height="440" as="geometry"/>
                </mxCell>
                <mxCell id="V8cRjmN9XUSk29RJIiwN-5" value="" style="ellipse;whiteSpace=wrap;html=1;rounded=0;fontFamily=Times New Roman;fontSize=14;fontColor=default;fillColor=none;gradientColor=none;" parent="V8cRjmN9XUSk29RJIiwN-1" vertex="1">
                    <mxGeometry x="345" y="377.5" width="230" height="160" as="geometry"/>
                </mxCell>
                <mxCell id="V8cRjmN9XUSk29RJIiwN-6" value="Chatbot" style="text;html=1;strokeColor=none;fillColor=none;align=center;verticalAlign=middle;whiteSpace=wrap;rounded=0;fontFamily=Times New Roman;fontSize=14;fontColor=default;" parent="V8cRjmN9XUSk29RJIiwN-1" vertex="1">
                    <mxGeometry x="385" y="390" width="150" height="20" as="geometry"/>
                </mxCell>
                <mxCell id="V8cRjmN9XUSk29RJIiwN-10" style="edgeStyle=none;html=1;exitX=0;exitY=0.5;exitDx=0;exitDy=0;entryX=0.935;entryY=0.328;entryDx=0;entryDy=0;entryPerimeter=0;fontFamily=Times New Roman;fontSize=14;dashed=1;" parent="V8cRjmN9XUSk29RJIiwN-1" source="V8cRjmN9XUSk29RJIiwN-11" target="V8cRjmN9XUSk29RJIiwN-5" edge="1">
                    <mxGeometry relative="1" as="geometry"/>
                </mxCell>
                <mxCell id="V8cRjmN9XUSk29RJIiwN-11" value="Lấy thông tin sản phẩm" style="ellipse;whiteSpace=wrap;html=1;fontFamily=Times New Roman;fontSize=14;rotation=0;" parent="V8cRjmN9XUSk29RJIiwN-1" vertex="1">
                    <mxGeometry x="700" y="289.5" width="180" height="88" as="geometry"/>
                </mxCell>
                <mxCell id="V8cRjmN9XUSk29RJIiwN-12" value="&lt;b style=&quot;font-size: 14px;&quot;&gt;extension points&lt;/b&gt;" style="text;html=1;strokeColor=none;fillColor=none;align=center;verticalAlign=middle;whiteSpace=wrap;rounded=0;fontFamily=Times New Roman;fontSize=14;" parent="V8cRjmN9XUSk29RJIiwN-1" vertex="1">
                    <mxGeometry x="375" y="450" width="160" height="15" as="geometry"/>
                </mxCell>
                <mxCell id="V8cRjmN9XUSk29RJIiwN-13" value="Nhập nội dung cần hỏi" style="text;html=1;strokeColor=none;fillColor=none;align=center;verticalAlign=middle;whiteSpace=wrap;rounded=0;fontFamily=Times New Roman;fontSize=14;" parent="V8cRjmN9XUSk29RJIiwN-1" vertex="1">
                    <mxGeometry x="395" y="465" width="130" height="55" as="geometry"/>
                </mxCell>
                <mxCell id="V8cRjmN9XUSk29RJIiwN-14" value="&amp;lt;&amp;lt;Extend&amp;gt;&amp;gt;" style="text;html=1;strokeColor=none;fillColor=none;align=center;verticalAlign=middle;whiteSpace=wrap;rounded=0;rotation=-30;fontFamily=Times New Roman;fontSize=14;" parent="V8cRjmN9XUSk29RJIiwN-1" vertex="1">
                    <mxGeometry x="600" y="350" width="60" height="30" as="geometry"/>
                </mxCell>
                <mxCell id="V8cRjmN9XUSk29RJIiwN-15" value="" style="endArrow=none;html=1;entryX=0.943;entryY=0.272;entryDx=0;entryDy=0;entryPerimeter=0;fontFamily=Times New Roman;fontSize=14;" parent="V8cRjmN9XUSk29RJIiwN-1" target="V8cRjmN9XUSk29RJIiwN-5" edge="1">
                    <mxGeometry width="50" height="50" relative="1" as="geometry">
                        <mxPoint x="360" y="420" as="sourcePoint"/>
                        <mxPoint x="410" y="370" as="targetPoint"/>
                    </mxGeometry>
                </mxCell>
                <mxCell id="V8cRjmN9XUSk29RJIiwN-16" value="&amp;lt;&amp;lt;Extend&amp;gt;&amp;gt;" style="text;html=1;strokeColor=none;fillColor=none;align=center;verticalAlign=middle;whiteSpace=wrap;rounded=0;rotation=0;fontFamily=Times New Roman;fontSize=14;" parent="V8cRjmN9XUSk29RJIiwN-1" vertex="1">
                    <mxGeometry x="630" y="460" width="60" height="30" as="geometry"/>
                </mxCell>
                <mxCell id="V8cRjmN9XUSk29RJIiwN-18" style="edgeStyle=none;html=1;fontFamily=Times New Roman;fontSize=14;dashed=1;" parent="V8cRjmN9XUSk29RJIiwN-1" source="V8cRjmN9XUSk29RJIiwN-20" target="V8cRjmN9XUSk29RJIiwN-5" edge="1">
                    <mxGeometry relative="1" as="geometry"/>
                </mxCell>
                <mxCell id="V8cRjmN9XUSk29RJIiwN-20" value="Call API OpenAI" style="ellipse;whiteSpace=wrap;html=1;fontFamily=Times New Roman;fontSize=14;" parent="V8cRjmN9XUSk29RJIiwN-1" vertex="1">
                    <mxGeometry x="715" y="480" width="165" height="70" as="geometry"/>
                </mxCell>
            </root>
        </mxGraphModel>
    </diagram>
    <diagram name="cart" id="p9y-mOmXSRHTBuCpvmGk">
        <mxGraphModel dx="1258" dy="902" grid="1" gridSize="10" guides="1" tooltips="1" connect="1" arrows="1" fold="1" page="1" pageScale="1" pageWidth="1169" pageHeight="827" math="0" shadow="0">
            <root>
                <mxCell id="oh7U1UmuHEcukKGlXbJN-0"/>
                <mxCell id="oh7U1UmuHEcukKGlXbJN-1" parent="oh7U1UmuHEcukKGlXbJN-0"/>
                <mxCell id="oh7U1UmuHEcukKGlXbJN-2" style="edgeStyle=none;html=1;entryX=0;entryY=0.5;entryDx=0;entryDy=0;fontFamily=Times New Roman;fontSize=14;" parent="oh7U1UmuHEcukKGlXbJN-1" source="oh7U1UmuHEcukKGlXbJN-3" target="oh7U1UmuHEcukKGlXbJN-4" edge="1">
                    <mxGeometry relative="1" as="geometry"/>
                </mxCell>
                <mxCell id="oh7U1UmuHEcukKGlXbJN-3" value="User" style="shape=umlActor;verticalLabelPosition=bottom;verticalAlign=top;html=1;outlineConnect=0;fontFamily=Times New Roman;fontSize=14;" parent="oh7U1UmuHEcukKGlXbJN-1" vertex="1">
                    <mxGeometry x="160" y="390" width="30" height="60" as="geometry"/>
                </mxCell>
                <mxCell id="oh7U1UmuHEcukKGlXbJN-4" value="Quản lý giỏ hàng" style="whiteSpace=wrap;html=1;verticalAlign=top;fontFamily=Times New Roman;fontSize=14;" parent="oh7U1UmuHEcukKGlXbJN-1" vertex="1">
                    <mxGeometry x="280" y="160" width="640" height="520" as="geometry"/>
                </mxCell>
                <mxCell id="oh7U1UmuHEcukKGlXbJN-5" value="" style="ellipse;whiteSpace=wrap;html=1;rounded=0;fontFamily=Times New Roman;fontSize=14;fontColor=default;fillColor=none;gradientColor=none;" parent="oh7U1UmuHEcukKGlXbJN-1" vertex="1">
                    <mxGeometry x="345" y="377.5" width="230" height="160" as="geometry"/>
                </mxCell>
                <mxCell id="oh7U1UmuHEcukKGlXbJN-6" value="Quản lý giỏ hàng" style="text;html=1;strokeColor=none;fillColor=none;align=center;verticalAlign=middle;whiteSpace=wrap;rounded=0;fontFamily=Times New Roman;fontSize=14;fontColor=default;" parent="oh7U1UmuHEcukKGlXbJN-1" vertex="1">
                    <mxGeometry x="385" y="390" width="150" height="20" as="geometry"/>
                </mxCell>
                <mxCell id="oh7U1UmuHEcukKGlXbJN-7" value="" style="ellipse;whiteSpace=wrap;html=1;fontFamily=Times New Roman;fontSize=14;" parent="oh7U1UmuHEcukKGlXbJN-1" vertex="1">
                    <mxGeometry x="390" y="240" width="120" height="60" as="geometry"/>
                </mxCell>
                <mxCell id="oh7U1UmuHEcukKGlXbJN-8" value="Login" style="text;html=1;strokeColor=none;fillColor=none;align=center;verticalAlign=middle;whiteSpace=wrap;rounded=0;fontFamily=Times New Roman;fontSize=14;" parent="oh7U1UmuHEcukKGlXbJN-1" vertex="1">
                    <mxGeometry x="400" y="260" width="100" height="20" as="geometry"/>
                </mxCell>
                <mxCell id="oh7U1UmuHEcukKGlXbJN-9" value="&amp;lt;&amp;lt;include&amp;gt;&amp;gt;" style="text;html=1;strokeColor=none;fillColor=none;align=center;verticalAlign=middle;whiteSpace=wrap;rounded=0;fontFamily=Times New Roman;fontSize=14;" parent="oh7U1UmuHEcukKGlXbJN-1" vertex="1">
                    <mxGeometry x="465" y="320" width="60" height="30" as="geometry"/>
                </mxCell>
                <mxCell id="oh7U1UmuHEcukKGlXbJN-10" style="edgeStyle=none;html=1;exitX=0;exitY=0.5;exitDx=0;exitDy=0;entryX=0.935;entryY=0.328;entryDx=0;entryDy=0;entryPerimeter=0;fontFamily=Times New Roman;fontSize=14;dashed=1;" parent="oh7U1UmuHEcukKGlXbJN-1" source="oh7U1UmuHEcukKGlXbJN-11" target="oh7U1UmuHEcukKGlXbJN-5" edge="1">
                    <mxGeometry relative="1" as="geometry"/>
                </mxCell>
                <mxCell id="oh7U1UmuHEcukKGlXbJN-11" value="Xem giỏ hàng" style="ellipse;whiteSpace=wrap;html=1;fontFamily=Times New Roman;fontSize=14;" parent="oh7U1UmuHEcukKGlXbJN-1" vertex="1">
                    <mxGeometry x="760" y="350" width="110" height="56" as="geometry"/>
                </mxCell>
                <mxCell id="oh7U1UmuHEcukKGlXbJN-12" value="&lt;b style=&quot;font-size: 14px;&quot;&gt;extension points&lt;/b&gt;" style="text;html=1;strokeColor=none;fillColor=none;align=center;verticalAlign=middle;whiteSpace=wrap;rounded=0;fontFamily=Times New Roman;fontSize=14;" parent="oh7U1UmuHEcukKGlXbJN-1" vertex="1">
                    <mxGeometry x="375" y="450" width="160" height="15" as="geometry"/>
                </mxCell>
                <mxCell id="oh7U1UmuHEcukKGlXbJN-13" value="Xem, sửa, xoá sản phẩm&amp;nbsp;" style="text;html=1;strokeColor=none;fillColor=none;align=center;verticalAlign=middle;whiteSpace=wrap;rounded=0;fontFamily=Times New Roman;fontSize=14;" parent="oh7U1UmuHEcukKGlXbJN-1" vertex="1">
                    <mxGeometry x="382.5" y="470" width="155" height="50" as="geometry"/>
                </mxCell>
                <mxCell id="oh7U1UmuHEcukKGlXbJN-14" value="&amp;lt;&amp;lt;Extend&amp;gt;&amp;gt;" style="text;html=1;strokeColor=none;fillColor=none;align=center;verticalAlign=middle;whiteSpace=wrap;rounded=0;rotation=-15;fontFamily=Times New Roman;fontSize=14;" parent="oh7U1UmuHEcukKGlXbJN-1" vertex="1">
                    <mxGeometry x="630" y="370" width="60" height="30" as="geometry"/>
                </mxCell>
                <mxCell id="oh7U1UmuHEcukKGlXbJN-15" value="" style="endArrow=none;html=1;entryX=0.943;entryY=0.272;entryDx=0;entryDy=0;entryPerimeter=0;fontFamily=Times New Roman;fontSize=14;" parent="oh7U1UmuHEcukKGlXbJN-1" target="oh7U1UmuHEcukKGlXbJN-5" edge="1">
                    <mxGeometry width="50" height="50" relative="1" as="geometry">
                        <mxPoint x="360" y="420" as="sourcePoint"/>
                        <mxPoint x="410" y="370" as="targetPoint"/>
                    </mxGeometry>
                </mxCell>
                <mxCell id="oh7U1UmuHEcukKGlXbJN-16" value="&amp;lt;&amp;lt;Extend&amp;gt;&amp;gt;" style="text;html=1;strokeColor=none;fillColor=none;align=center;verticalAlign=middle;whiteSpace=wrap;rounded=0;rotation=15;fontFamily=Times New Roman;fontSize=14;" parent="oh7U1UmuHEcukKGlXbJN-1" vertex="1">
                    <mxGeometry x="630" y="490" width="60" height="30" as="geometry"/>
                </mxCell>
                <mxCell id="oh7U1UmuHEcukKGlXbJN-17" value="&amp;lt;&amp;lt;Include&amp;gt;&amp;gt;" style="text;html=1;strokeColor=none;fillColor=none;align=center;verticalAlign=middle;whiteSpace=wrap;rounded=0;rotation=-15;fontFamily=Times New Roman;fontSize=14;" parent="oh7U1UmuHEcukKGlXbJN-1" vertex="1">
                    <mxGeometry x="630" y="560" width="60" height="30" as="geometry"/>
                </mxCell>
                <mxCell id="oh7U1UmuHEcukKGlXbJN-18" style="edgeStyle=none;html=1;fontFamily=Times New Roman;fontSize=14;dashed=1;" parent="oh7U1UmuHEcukKGlXbJN-1" source="oh7U1UmuHEcukKGlXbJN-20" target="oh7U1UmuHEcukKGlXbJN-5" edge="1">
                    <mxGeometry relative="1" as="geometry"/>
                </mxCell>
                <mxCell id="oh7U1UmuHEcukKGlXbJN-19" style="edgeStyle=none;html=1;entryX=1;entryY=0.5;entryDx=0;entryDy=0;fontFamily=Times New Roman;fontSize=14;dashed=1;" parent="oh7U1UmuHEcukKGlXbJN-1" source="oh7U1UmuHEcukKGlXbJN-20" target="oh7U1UmuHEcukKGlXbJN-21" edge="1">
                    <mxGeometry relative="1" as="geometry"/>
                </mxCell>
                <mxCell id="oh7U1UmuHEcukKGlXbJN-20" value="Sửa số lượng sản phẩm" style="ellipse;whiteSpace=wrap;html=1;fontFamily=Times New Roman;fontSize=14;" parent="oh7U1UmuHEcukKGlXbJN-1" vertex="1">
                    <mxGeometry x="740" y="520" width="130" height="70" as="geometry"/>
                </mxCell>
                <mxCell id="oh7U1UmuHEcukKGlXbJN-21" value="Kiểm tra số lượng" style="ellipse;whiteSpace=wrap;html=1;fontFamily=Times New Roman;fontSize=14;" parent="oh7U1UmuHEcukKGlXbJN-1" vertex="1">
                    <mxGeometry x="465" y="590" width="120" height="50" as="geometry"/>
                </mxCell>
                <mxCell id="oh7U1UmuHEcukKGlXbJN-22" value="" style="endArrow=classic;html=1;entryX=0.5;entryY=1;entryDx=0;entryDy=0;exitX=0.465;exitY=-0.003;exitDx=0;exitDy=0;exitPerimeter=0;fontFamily=Times New Roman;fontSize=14;dashed=1;" parent="oh7U1UmuHEcukKGlXbJN-1" source="oh7U1UmuHEcukKGlXbJN-5" target="oh7U1UmuHEcukKGlXbJN-7" edge="1">
                    <mxGeometry width="50" height="50" relative="1" as="geometry">
                        <mxPoint x="440" y="370" as="sourcePoint"/>
                        <mxPoint x="490" y="320" as="targetPoint"/>
                    </mxGeometry>
                </mxCell>
            </root>
        </mxGraphModel>
    </diagram>
    <diagram name="checkout" id="nFF-zjs5_V-SxQHukF89">
        <mxGraphModel dx="2742" dy="1955" grid="1" gridSize="10" guides="1" tooltips="1" connect="1" arrows="1" fold="1" page="1" pageScale="1" pageWidth="1169" pageHeight="827" math="0" shadow="0">
            <root>
                <mxCell id="foOeIk81-DfA3o-qPA9i-0"/>
                <mxCell id="foOeIk81-DfA3o-qPA9i-1" parent="foOeIk81-DfA3o-qPA9i-0"/>
                <mxCell id="foOeIk81-DfA3o-qPA9i-2" style="edgeStyle=none;html=1;entryX=0;entryY=0.5;entryDx=0;entryDy=0;fontFamily=Times New Roman;fontSize=14;" parent="foOeIk81-DfA3o-qPA9i-1" source="foOeIk81-DfA3o-qPA9i-3" target="foOeIk81-DfA3o-qPA9i-4" edge="1">
                    <mxGeometry relative="1" as="geometry"/>
                </mxCell>
                <mxCell id="foOeIk81-DfA3o-qPA9i-3" value="User" style="shape=umlActor;verticalLabelPosition=bottom;verticalAlign=top;html=1;outlineConnect=0;fontFamily=Times New Roman;fontSize=14;" parent="foOeIk81-DfA3o-qPA9i-1" vertex="1">
                    <mxGeometry x="-70" y="335" width="30" height="60" as="geometry"/>
                </mxCell>
                <mxCell id="foOeIk81-DfA3o-qPA9i-4" value="Đặt hàng" style="whiteSpace=wrap;html=1;verticalAlign=top;fontFamily=Times New Roman;fontSize=14;" parent="foOeIk81-DfA3o-qPA9i-1" vertex="1">
                    <mxGeometry x="80" y="-40" width="1000" height="810" as="geometry"/>
                </mxCell>
                <mxCell id="WjJ2CMce9UrP9Uwu7z20-6" style="edgeStyle=none;html=1;exitX=0.5;exitY=0;exitDx=0;exitDy=0;entryX=0.5;entryY=1;entryDx=0;entryDy=0;fontFamily=Times New Roman;fontSize=14;" parent="foOeIk81-DfA3o-qPA9i-1" source="foOeIk81-DfA3o-qPA9i-5" target="WjJ2CMce9UrP9Uwu7z20-1" edge="1">
                    <mxGeometry relative="1" as="geometry"/>
                </mxCell>
                <mxCell id="WjJ2CMce9UrP9Uwu7z20-23" style="edgeStyle=none;html=1;entryX=1;entryY=0;entryDx=0;entryDy=0;fontFamily=Times New Roman;fontSize=14;dashed=1;" parent="foOeIk81-DfA3o-qPA9i-1" source="foOeIk81-DfA3o-qPA9i-5" target="WjJ2CMce9UrP9Uwu7z20-21" edge="1">
                    <mxGeometry relative="1" as="geometry"/>
                </mxCell>
                <mxCell id="foOeIk81-DfA3o-qPA9i-5" value="" style="ellipse;whiteSpace=wrap;html=1;rounded=0;fontFamily=Times New Roman;fontSize=14;fontColor=default;fillColor=none;gradientColor=none;" parent="foOeIk81-DfA3o-qPA9i-1" vertex="1">
                    <mxGeometry x="400" y="377.5" width="230" height="160" as="geometry"/>
                </mxCell>
                <mxCell id="foOeIk81-DfA3o-qPA9i-6" value="Quản lý giỏ hàng" style="text;html=1;strokeColor=none;fillColor=none;align=center;verticalAlign=middle;whiteSpace=wrap;rounded=0;fontFamily=Times New Roman;fontSize=14;fontColor=default;" parent="foOeIk81-DfA3o-qPA9i-1" vertex="1">
                    <mxGeometry x="440" y="390" width="150" height="20" as="geometry"/>
                </mxCell>
                <mxCell id="foOeIk81-DfA3o-qPA9i-7" value="" style="ellipse;whiteSpace=wrap;html=1;fontFamily=Times New Roman;fontSize=14;" parent="foOeIk81-DfA3o-qPA9i-1" vertex="1">
                    <mxGeometry x="452.5" y="10" width="122.5" height="50" as="geometry"/>
                </mxCell>
                <mxCell id="foOeIk81-DfA3o-qPA9i-8" value="Login" style="text;html=1;strokeColor=none;fillColor=none;align=center;verticalAlign=middle;whiteSpace=wrap;rounded=0;fontFamily=Times New Roman;fontSize=14;" parent="foOeIk81-DfA3o-qPA9i-1" vertex="1">
                    <mxGeometry x="460" y="20" width="100" height="20" as="geometry"/>
                </mxCell>
                <mxCell id="foOeIk81-DfA3o-qPA9i-9" value="&amp;lt;&amp;lt;include&amp;gt;&amp;gt;" style="text;html=1;strokeColor=none;fillColor=none;align=center;verticalAlign=middle;whiteSpace=wrap;rounded=0;fontFamily=Times New Roman;fontSize=14;" parent="foOeIk81-DfA3o-qPA9i-1" vertex="1">
                    <mxGeometry x="532.5" y="90" width="60" height="30" as="geometry"/>
                </mxCell>
                <mxCell id="foOeIk81-DfA3o-qPA9i-10" style="edgeStyle=none;html=1;exitX=0;exitY=0.5;exitDx=0;exitDy=0;entryX=0.935;entryY=0.328;entryDx=0;entryDy=0;entryPerimeter=0;fontFamily=Times New Roman;fontSize=14;dashed=1;" parent="foOeIk81-DfA3o-qPA9i-1" source="foOeIk81-DfA3o-qPA9i-11" target="foOeIk81-DfA3o-qPA9i-5" edge="1">
                    <mxGeometry relative="1" as="geometry"/>
                </mxCell>
                <mxCell id="foOeIk81-DfA3o-qPA9i-11" value="Xem giỏ hàng" style="ellipse;whiteSpace=wrap;html=1;fontFamily=Times New Roman;fontSize=14;" parent="foOeIk81-DfA3o-qPA9i-1" vertex="1">
                    <mxGeometry x="885" y="400" width="110" height="56" as="geometry"/>
                </mxCell>
                <mxCell id="foOeIk81-DfA3o-qPA9i-12" value="&lt;b style=&quot;font-size: 14px;&quot;&gt;extension points&lt;/b&gt;" style="text;html=1;strokeColor=none;fillColor=none;align=center;verticalAlign=middle;whiteSpace=wrap;rounded=0;fontFamily=Times New Roman;fontSize=14;" parent="foOeIk81-DfA3o-qPA9i-1" vertex="1">
                    <mxGeometry x="430" y="450" width="160" height="15" as="geometry"/>
                </mxCell>
                <mxCell id="foOeIk81-DfA3o-qPA9i-13" value="Sửa, xoá sản phẩm&amp;nbsp;" style="text;html=1;strokeColor=none;fillColor=none;align=center;verticalAlign=middle;whiteSpace=wrap;rounded=0;fontFamily=Times New Roman;fontSize=14;" parent="foOeIk81-DfA3o-qPA9i-1" vertex="1">
                    <mxGeometry x="437.5" y="470" width="155" height="50" as="geometry"/>
                </mxCell>
                <mxCell id="foOeIk81-DfA3o-qPA9i-14" value="&amp;lt;&amp;lt;Extend&amp;gt;&amp;gt;" style="text;html=1;strokeColor=none;fillColor=none;align=center;verticalAlign=middle;whiteSpace=wrap;rounded=0;rotation=0;fontFamily=Times New Roman;fontSize=14;" parent="foOeIk81-DfA3o-qPA9i-1" vertex="1">
                    <mxGeometry x="755" y="400" width="60" height="30" as="geometry"/>
                </mxCell>
                <mxCell id="foOeIk81-DfA3o-qPA9i-15" value="" style="endArrow=none;html=1;entryX=0.943;entryY=0.272;entryDx=0;entryDy=0;entryPerimeter=0;fontFamily=Times New Roman;fontSize=14;" parent="foOeIk81-DfA3o-qPA9i-1" target="foOeIk81-DfA3o-qPA9i-5" edge="1">
                    <mxGeometry width="50" height="50" relative="1" as="geometry">
                        <mxPoint x="415" y="420" as="sourcePoint"/>
                        <mxPoint x="465" y="370" as="targetPoint"/>
                    </mxGeometry>
                </mxCell>
                <mxCell id="foOeIk81-DfA3o-qPA9i-16" value="&amp;lt;&amp;lt;Extend&amp;gt;&amp;gt;" style="text;html=1;strokeColor=none;fillColor=none;align=center;verticalAlign=middle;whiteSpace=wrap;rounded=0;rotation=15;fontFamily=Times New Roman;fontSize=14;" parent="foOeIk81-DfA3o-qPA9i-1" vertex="1">
                    <mxGeometry x="755" y="520" width="60" height="30" as="geometry"/>
                </mxCell>
                <mxCell id="foOeIk81-DfA3o-qPA9i-17" value="&amp;lt;&amp;lt;Include&amp;gt;&amp;gt;" style="text;html=1;strokeColor=none;fillColor=none;align=center;verticalAlign=middle;whiteSpace=wrap;rounded=0;rotation=-30;fontFamily=Times New Roman;fontSize=14;" parent="foOeIk81-DfA3o-qPA9i-1" vertex="1">
                    <mxGeometry x="780" y="640" width="60" height="30" as="geometry"/>
                </mxCell>
                <mxCell id="foOeIk81-DfA3o-qPA9i-18" style="edgeStyle=none;html=1;fontFamily=Times New Roman;fontSize=14;dashed=1;" parent="foOeIk81-DfA3o-qPA9i-1" source="foOeIk81-DfA3o-qPA9i-20" target="foOeIk81-DfA3o-qPA9i-5" edge="1">
                    <mxGeometry relative="1" as="geometry"/>
                </mxCell>
                <mxCell id="aYeNEY-BqI4KWTe07_mJ-0" style="edgeStyle=none;html=1;entryX=1;entryY=0.5;entryDx=0;entryDy=0;fontFamily=Times New Roman;fontSize=14;dashed=1;" parent="foOeIk81-DfA3o-qPA9i-1" source="foOeIk81-DfA3o-qPA9i-20" target="foOeIk81-DfA3o-qPA9i-21" edge="1">
                    <mxGeometry relative="1" as="geometry"/>
                </mxCell>
                <mxCell id="foOeIk81-DfA3o-qPA9i-20" value="Sửa số lượng sản phẩm" style="ellipse;whiteSpace=wrap;html=1;fontFamily=Times New Roman;fontSize=14;" parent="foOeIk81-DfA3o-qPA9i-1" vertex="1">
                    <mxGeometry x="865" y="570" width="130" height="70" as="geometry"/>
                </mxCell>
                <mxCell id="foOeIk81-DfA3o-qPA9i-21" value="Kiểm tra số lượng" style="ellipse;whiteSpace=wrap;html=1;fontFamily=Times New Roman;fontSize=14;" parent="foOeIk81-DfA3o-qPA9i-1" vertex="1">
                    <mxGeometry x="635" y="680" width="120" height="50" as="geometry"/>
                </mxCell>
                <mxCell id="WjJ2CMce9UrP9Uwu7z20-13" style="edgeStyle=none;html=1;exitX=0.5;exitY=0;exitDx=0;exitDy=0;entryX=0.5;entryY=1;entryDx=0;entryDy=0;fontFamily=Times New Roman;fontSize=14;dashed=1;" parent="foOeIk81-DfA3o-qPA9i-1" source="WjJ2CMce9UrP9Uwu7z20-1" target="foOeIk81-DfA3o-qPA9i-7" edge="1">
                    <mxGeometry relative="1" as="geometry"/>
                </mxCell>
                <mxCell id="WjJ2CMce9UrP9Uwu7z20-16" style="edgeStyle=none;html=1;exitX=1;exitY=0.5;exitDx=0;exitDy=0;entryX=0.021;entryY=0.65;entryDx=0;entryDy=0;entryPerimeter=0;fontFamily=Times New Roman;fontSize=14;dashed=1;" parent="foOeIk81-DfA3o-qPA9i-1" source="WjJ2CMce9UrP9Uwu7z20-1" target="WjJ2CMce9UrP9Uwu7z20-14" edge="1">
                    <mxGeometry relative="1" as="geometry"/>
                </mxCell>
                <mxCell id="WjJ2CMce9UrP9Uwu7z20-1" value="" style="ellipse;whiteSpace=wrap;html=1;rounded=0;fontFamily=Times New Roman;fontSize=14;fontColor=default;fillColor=none;gradientColor=none;" parent="foOeIk81-DfA3o-qPA9i-1" vertex="1">
                    <mxGeometry x="402.5" y="150" width="225" height="110" as="geometry"/>
                </mxCell>
                <mxCell id="WjJ2CMce9UrP9Uwu7z20-2" value="Đặt hàng" style="text;html=1;strokeColor=none;fillColor=none;align=center;verticalAlign=middle;whiteSpace=wrap;rounded=0;fontFamily=Times New Roman;fontSize=14;fontColor=default;" parent="foOeIk81-DfA3o-qPA9i-1" vertex="1">
                    <mxGeometry x="435" y="160" width="150" height="20" as="geometry"/>
                </mxCell>
                <mxCell id="WjJ2CMce9UrP9Uwu7z20-9" value="" style="endArrow=none;html=1;fontFamily=Times New Roman;fontSize=14;entryX=0.956;entryY=0.273;entryDx=0;entryDy=0;entryPerimeter=0;" parent="foOeIk81-DfA3o-qPA9i-1" target="WjJ2CMce9UrP9Uwu7z20-1" edge="1">
                    <mxGeometry width="50" height="50" relative="1" as="geometry">
                        <mxPoint x="415" y="180" as="sourcePoint"/>
                        <mxPoint x="465" y="130" as="targetPoint"/>
                    </mxGeometry>
                </mxCell>
                <mxCell id="WjJ2CMce9UrP9Uwu7z20-11" value="&lt;b style=&quot;font-size: 14px;&quot;&gt;extension points&lt;/b&gt;" style="text;html=1;strokeColor=none;fillColor=none;align=center;verticalAlign=middle;whiteSpace=wrap;rounded=0;fontFamily=Times New Roman;fontSize=14;" parent="foOeIk81-DfA3o-qPA9i-1" vertex="1">
                    <mxGeometry x="430" y="190" width="160" height="15" as="geometry"/>
                </mxCell>
                <mxCell id="WjJ2CMce9UrP9Uwu7z20-12" value="Quản lý giỏ hàng" style="text;html=1;strokeColor=none;fillColor=none;align=center;verticalAlign=middle;whiteSpace=wrap;rounded=0;fontFamily=Times New Roman;fontSize=14;" parent="foOeIk81-DfA3o-qPA9i-1" vertex="1">
                    <mxGeometry x="435" y="205" width="155" height="50" as="geometry"/>
                </mxCell>
                <mxCell id="WjJ2CMce9UrP9Uwu7z20-18" style="edgeStyle=none;html=1;entryX=0.752;entryY=0.044;entryDx=0;entryDy=0;entryPerimeter=0;fontFamily=Times New Roman;fontSize=14;dashed=1;" parent="foOeIk81-DfA3o-qPA9i-1" source="WjJ2CMce9UrP9Uwu7z20-14" target="foOeIk81-DfA3o-qPA9i-5" edge="1">
                    <mxGeometry relative="1" as="geometry"/>
                </mxCell>
                <mxCell id="WjJ2CMce9UrP9Uwu7z20-14" value="Lựa chọn sản phẩm" style="ellipse;whiteSpace=wrap;html=1;fontFamily=Times New Roman;fontSize=14;" parent="foOeIk81-DfA3o-qPA9i-1" vertex="1">
                    <mxGeometry x="885" y="167.5" width="140" height="60" as="geometry"/>
                </mxCell>
                <mxCell id="WjJ2CMce9UrP9Uwu7z20-17" value="&amp;lt;&amp;lt;include&amp;gt;&amp;gt;" style="text;html=1;strokeColor=none;fillColor=none;align=center;verticalAlign=middle;whiteSpace=wrap;rounded=0;fontFamily=Times New Roman;fontSize=14;" parent="foOeIk81-DfA3o-qPA9i-1" vertex="1">
                    <mxGeometry x="740" y="180" width="60" height="30" as="geometry"/>
                </mxCell>
                <mxCell id="WjJ2CMce9UrP9Uwu7z20-19" value="&amp;lt;&amp;lt;Extend&amp;gt;&amp;gt;" style="text;html=1;strokeColor=none;fillColor=none;align=center;verticalAlign=middle;whiteSpace=wrap;rounded=0;rotation=-30;fontFamily=Times New Roman;fontSize=14;" parent="foOeIk81-DfA3o-qPA9i-1" vertex="1">
                    <mxGeometry x="780" y="280" width="60" height="30" as="geometry"/>
                </mxCell>
                <mxCell id="WjJ2CMce9UrP9Uwu7z20-20" value="&amp;lt;&amp;lt;Extend&amp;gt;&amp;gt;" style="text;html=1;strokeColor=none;fillColor=none;align=center;verticalAlign=middle;whiteSpace=wrap;rounded=0;rotation=-90;fontFamily=Times New Roman;fontSize=14;" parent="foOeIk81-DfA3o-qPA9i-1" vertex="1">
                    <mxGeometry x="472.5" y="310" width="60" height="30" as="geometry"/>
                </mxCell>
                <mxCell id="WjJ2CMce9UrP9Uwu7z20-21" value="Áp mã giảm giá" style="ellipse;whiteSpace=wrap;html=1;fontFamily=Times New Roman;fontSize=14;" parent="foOeIk81-DfA3o-qPA9i-1" vertex="1">
                    <mxGeometry x="170" y="670" width="140" height="60" as="geometry"/>
                </mxCell>
                <mxCell id="WjJ2CMce9UrP9Uwu7z20-24" value="&amp;lt;&amp;lt;include&amp;gt;&amp;gt;" style="text;html=1;strokeColor=none;fillColor=none;align=center;verticalAlign=middle;whiteSpace=wrap;rounded=0;fontFamily=Times New Roman;fontSize=14;rotation=-45;" parent="foOeIk81-DfA3o-qPA9i-1" vertex="1">
                    <mxGeometry x="300" y="580" width="60" height="30" as="geometry"/>
                </mxCell>
                <mxCell id="aYeNEY-BqI4KWTe07_mJ-2" style="edgeStyle=none;html=1;exitX=1;exitY=0.5;exitDx=0;exitDy=0;entryX=0.004;entryY=0.358;entryDx=0;entryDy=0;entryPerimeter=0;fontFamily=Times New Roman;fontSize=14;dashed=1;" parent="foOeIk81-DfA3o-qPA9i-1" source="aYeNEY-BqI4KWTe07_mJ-1" target="WjJ2CMce9UrP9Uwu7z20-1" edge="1">
                    <mxGeometry relative="1" as="geometry"/>
                </mxCell>
                <mxCell id="aYeNEY-BqI4KWTe07_mJ-1" value="Gửi email xác nhận mua hàng" style="ellipse;whiteSpace=wrap;html=1;fontFamily=Times New Roman;fontSize=14;" parent="foOeIk81-DfA3o-qPA9i-1" vertex="1">
                    <mxGeometry x="120" y="147.5" width="160" height="80" as="geometry"/>
                </mxCell>
                <mxCell id="aYeNEY-BqI4KWTe07_mJ-3" value="&amp;lt;&amp;lt;Extend&amp;gt;&amp;gt;" style="text;html=1;strokeColor=none;fillColor=none;align=center;verticalAlign=middle;whiteSpace=wrap;rounded=0;rotation=0;fontFamily=Times New Roman;fontSize=14;" parent="foOeIk81-DfA3o-qPA9i-1" vertex="1">
                    <mxGeometry x="300" y="160" width="60" height="30" as="geometry"/>
                </mxCell>
                <mxCell id="aYeNEY-BqI4KWTe07_mJ-5" style="edgeStyle=none;html=1;entryX=0.033;entryY=0.727;entryDx=0;entryDy=0;entryPerimeter=0;fontFamily=Times New Roman;fontSize=14;dashed=1;" parent="foOeIk81-DfA3o-qPA9i-1" source="aYeNEY-BqI4KWTe07_mJ-4" target="WjJ2CMce9UrP9Uwu7z20-1" edge="1">
                    <mxGeometry relative="1" as="geometry"/>
                </mxCell>
                <mxCell id="aYeNEY-BqI4KWTe07_mJ-4" value="Gửi tin nhắn có đơn hàng mới qua telegramcho admin" style="ellipse;whiteSpace=wrap;html=1;fontFamily=Times New Roman;fontSize=14;" parent="foOeIk81-DfA3o-qPA9i-1" vertex="1">
                    <mxGeometry x="120" y="340" width="200" height="106" as="geometry"/>
                </mxCell>
                <mxCell id="aYeNEY-BqI4KWTe07_mJ-6" value="&amp;lt;&amp;lt;Extend&amp;gt;&amp;gt;" style="text;html=1;strokeColor=none;fillColor=none;align=center;verticalAlign=middle;whiteSpace=wrap;rounded=0;rotation=-45;fontFamily=Times New Roman;fontSize=14;" parent="foOeIk81-DfA3o-qPA9i-1" vertex="1">
                    <mxGeometry x="300" y="270" width="60" height="30" as="geometry"/>
                </mxCell>
            </root>
        </mxGraphModel>
    </diagram>
    <diagram name="purchase info" id="ClUZAvkbXha5WzVCWKZr">
        <mxGraphModel dx="1258" dy="902" grid="1" gridSize="10" guides="1" tooltips="1" connect="1" arrows="1" fold="1" page="1" pageScale="1" pageWidth="1169" pageHeight="827" math="0" shadow="0">
            <root>
                <mxCell id="dBksxYjZqAMtrJ5fLsJi-0"/>
                <mxCell id="dBksxYjZqAMtrJ5fLsJi-1" parent="dBksxYjZqAMtrJ5fLsJi-0"/>
                <mxCell id="dBksxYjZqAMtrJ5fLsJi-2" style="edgeStyle=none;html=1;entryX=0;entryY=0.5;entryDx=0;entryDy=0;fontFamily=Times New Roman;fontSize=14;" parent="dBksxYjZqAMtrJ5fLsJi-1" source="dBksxYjZqAMtrJ5fLsJi-3" target="dBksxYjZqAMtrJ5fLsJi-4" edge="1">
                    <mxGeometry relative="1" as="geometry"/>
                </mxCell>
                <mxCell id="dBksxYjZqAMtrJ5fLsJi-3" value="User" style="shape=umlActor;verticalLabelPosition=bottom;verticalAlign=top;html=1;outlineConnect=0;fontFamily=Times New Roman;fontSize=14;" parent="dBksxYjZqAMtrJ5fLsJi-1" vertex="1">
                    <mxGeometry x="330" y="390" width="30" height="60" as="geometry"/>
                </mxCell>
                <mxCell id="dBksxYjZqAMtrJ5fLsJi-4" value="Xem đơn hàng" style="whiteSpace=wrap;html=1;verticalAlign=top;fontFamily=Times New Roman;fontSize=14;" parent="dBksxYjZqAMtrJ5fLsJi-1" vertex="1">
                    <mxGeometry x="440" y="160" width="400" height="520" as="geometry"/>
                </mxCell>
                <mxCell id="Rz38XnH4zSQPXT5zERHO-3" style="edgeStyle=none;html=1;entryX=0.558;entryY=0.983;entryDx=0;entryDy=0;entryPerimeter=0;fontFamily=Times New Roman;fontSize=14;dashed=1;" parent="dBksxYjZqAMtrJ5fLsJi-1" source="dBksxYjZqAMtrJ5fLsJi-5" target="dBksxYjZqAMtrJ5fLsJi-7" edge="1">
                    <mxGeometry relative="1" as="geometry"/>
                </mxCell>
                <mxCell id="Rz38XnH4zSQPXT5zERHO-4" style="edgeStyle=none;html=1;exitX=0.5;exitY=1;exitDx=0;exitDy=0;entryX=0.5;entryY=0;entryDx=0;entryDy=0;fontFamily=Times New Roman;fontSize=14;dashed=1;" parent="dBksxYjZqAMtrJ5fLsJi-1" source="dBksxYjZqAMtrJ5fLsJi-5" target="dBksxYjZqAMtrJ5fLsJi-21" edge="1">
                    <mxGeometry relative="1" as="geometry"/>
                </mxCell>
                <mxCell id="dBksxYjZqAMtrJ5fLsJi-5" value="" style="ellipse;whiteSpace=wrap;html=1;rounded=0;fontFamily=Times New Roman;fontSize=14;fontColor=default;fillColor=none;gradientColor=none;" parent="dBksxYjZqAMtrJ5fLsJi-1" vertex="1">
                    <mxGeometry x="510" y="390" width="245" height="100" as="geometry"/>
                </mxCell>
                <mxCell id="dBksxYjZqAMtrJ5fLsJi-6" value="Xem chi tiết đơn hàng" style="text;html=1;strokeColor=none;fillColor=none;align=center;verticalAlign=middle;whiteSpace=wrap;rounded=0;fontFamily=Times New Roman;fontSize=14;fontColor=default;" parent="dBksxYjZqAMtrJ5fLsJi-1" vertex="1">
                    <mxGeometry x="545" y="420" width="170" height="30" as="geometry"/>
                </mxCell>
                <mxCell id="dBksxYjZqAMtrJ5fLsJi-7" value="" style="ellipse;whiteSpace=wrap;html=1;fontFamily=Times New Roman;fontSize=14;" parent="dBksxYjZqAMtrJ5fLsJi-1" vertex="1">
                    <mxGeometry x="565" y="230" width="120" height="60" as="geometry"/>
                </mxCell>
                <mxCell id="dBksxYjZqAMtrJ5fLsJi-8" value="Login" style="text;html=1;strokeColor=none;fillColor=none;align=center;verticalAlign=middle;whiteSpace=wrap;rounded=0;fontFamily=Times New Roman;fontSize=14;" parent="dBksxYjZqAMtrJ5fLsJi-1" vertex="1">
                    <mxGeometry x="575" y="250" width="100" height="20" as="geometry"/>
                </mxCell>
                <mxCell id="dBksxYjZqAMtrJ5fLsJi-9" value="&amp;lt;&amp;lt;include&amp;gt;&amp;gt;" style="text;html=1;strokeColor=none;fillColor=none;align=center;verticalAlign=middle;whiteSpace=wrap;rounded=0;fontFamily=Times New Roman;fontSize=14;" parent="dBksxYjZqAMtrJ5fLsJi-1" vertex="1">
                    <mxGeometry x="660" y="310" width="60" height="30" as="geometry"/>
                </mxCell>
                <mxCell id="dBksxYjZqAMtrJ5fLsJi-14" value="&amp;lt;&amp;lt;Extend&amp;gt;&amp;gt;" style="text;html=1;strokeColor=none;fillColor=none;align=center;verticalAlign=middle;whiteSpace=wrap;rounded=0;rotation=0;fontFamily=Times New Roman;fontSize=14;" parent="dBksxYjZqAMtrJ5fLsJi-1" vertex="1">
                    <mxGeometry x="660" y="520" width="60" height="30" as="geometry"/>
                </mxCell>
                <mxCell id="dBksxYjZqAMtrJ5fLsJi-21" value="Chọn đơn hàng" style="ellipse;whiteSpace=wrap;html=1;fontFamily=Times New Roman;fontSize=14;" parent="dBksxYjZqAMtrJ5fLsJi-1" vertex="1">
                    <mxGeometry x="565" y="570" width="135" height="60" as="geometry"/>
                </mxCell>
                <mxCell id="Rz38XnH4zSQPXT5zERHO-2" style="edgeStyle=none;html=1;entryX=1.005;entryY=0.488;entryDx=0;entryDy=0;entryPerimeter=0;fontFamily=Times New Roman;fontSize=14;" parent="dBksxYjZqAMtrJ5fLsJi-1" source="Rz38XnH4zSQPXT5zERHO-0" target="dBksxYjZqAMtrJ5fLsJi-4" edge="1">
                    <mxGeometry relative="1" as="geometry"/>
                </mxCell>
                <mxCell id="Rz38XnH4zSQPXT5zERHO-0" value="Admin" style="shape=umlActor;verticalLabelPosition=bottom;verticalAlign=top;html=1;outlineConnect=0;fontFamily=Times New Roman;fontSize=14;" parent="dBksxYjZqAMtrJ5fLsJi-1" vertex="1">
                    <mxGeometry x="920" y="384" width="30" height="60" as="geometry"/>
                </mxCell>
            </root>
        </mxGraphModel>
    </diagram>
    <diagram name="admin product" id="aIqCoTHSe0LqDqrzMdfi">
        <mxGraphModel dx="1258" dy="902" grid="1" gridSize="10" guides="1" tooltips="1" connect="1" arrows="1" fold="1" page="1" pageScale="1" pageWidth="1169" pageHeight="827" math="0" shadow="0">
            <root>
                <mxCell id="VRqBJyvpK4GSvHRPGR0C-0"/>
                <mxCell id="VRqBJyvpK4GSvHRPGR0C-1" parent="VRqBJyvpK4GSvHRPGR0C-0"/>
                <mxCell id="VRqBJyvpK4GSvHRPGR0C-2" style="edgeStyle=none;html=1;entryX=0;entryY=0.5;entryDx=0;entryDy=0;fontFamily=Times New Roman;fontSize=14;" parent="VRqBJyvpK4GSvHRPGR0C-1" source="VRqBJyvpK4GSvHRPGR0C-3" target="VRqBJyvpK4GSvHRPGR0C-4" edge="1">
                    <mxGeometry relative="1" as="geometry"/>
                </mxCell>
                <mxCell id="VRqBJyvpK4GSvHRPGR0C-3" value="Admin" style="shape=umlActor;verticalLabelPosition=bottom;verticalAlign=top;html=1;outlineConnect=0;fontFamily=Times New Roman;fontSize=14;" parent="VRqBJyvpK4GSvHRPGR0C-1" vertex="1">
                    <mxGeometry x="90" y="370" width="30" height="60" as="geometry"/>
                </mxCell>
                <mxCell id="VRqBJyvpK4GSvHRPGR0C-4" value="Quản lý sản phẩm" style="whiteSpace=wrap;html=1;verticalAlign=top;fontFamily=Times New Roman;fontSize=14;" parent="VRqBJyvpK4GSvHRPGR0C-1" vertex="1">
                    <mxGeometry x="200" y="80" width="800" height="640" as="geometry"/>
                </mxCell>
                <mxCell id="VRqBJyvpK4GSvHRPGR0C-7" value="Thêm, sửa, xoá, tìm kiếm sản phẩm" style="ellipse;whiteSpace=wrap;html=1;rounded=0;fontFamily=Times New Roman;fontSize=14;fontColor=default;fillColor=none;gradientColor=none;" parent="VRqBJyvpK4GSvHRPGR0C-1" vertex="1">
                    <mxGeometry x="450" y="260" width="245" height="140" as="geometry"/>
                </mxCell>
                <mxCell id="iYIVYhScicFOPCJVUQuJ-10" style="edgeStyle=none;html=1;entryX=0.456;entryY=1.05;entryDx=0;entryDy=0;entryPerimeter=0;fontFamily=Times New Roman;fontSize=14;dashed=1;" parent="VRqBJyvpK4GSvHRPGR0C-1" source="VRqBJyvpK4GSvHRPGR0C-8" target="VRqBJyvpK4GSvHRPGR0C-9" edge="1">
                    <mxGeometry relative="1" as="geometry"/>
                </mxCell>
                <mxCell id="VRqBJyvpK4GSvHRPGR0C-8" value="Quản lý sản phẩm" style="text;html=1;strokeColor=none;fillColor=none;align=center;verticalAlign=middle;whiteSpace=wrap;rounded=0;fontFamily=Times New Roman;fontSize=14;fontColor=default;" parent="VRqBJyvpK4GSvHRPGR0C-1" vertex="1">
                    <mxGeometry x="487.5" y="260" width="170" height="30" as="geometry"/>
                </mxCell>
                <mxCell id="VRqBJyvpK4GSvHRPGR0C-9" value="" style="ellipse;whiteSpace=wrap;html=1;fontFamily=Times New Roman;fontSize=14;" parent="VRqBJyvpK4GSvHRPGR0C-1" vertex="1">
                    <mxGeometry x="515" y="160" width="125" height="40" as="geometry"/>
                </mxCell>
                <mxCell id="VRqBJyvpK4GSvHRPGR0C-10" value="Login" style="text;html=1;strokeColor=none;fillColor=none;align=center;verticalAlign=middle;whiteSpace=wrap;rounded=0;fontFamily=Times New Roman;fontSize=14;" parent="VRqBJyvpK4GSvHRPGR0C-1" vertex="1">
                    <mxGeometry x="525" y="170" width="100" height="20" as="geometry"/>
                </mxCell>
                <mxCell id="VRqBJyvpK4GSvHRPGR0C-11" value="&amp;lt;&amp;lt;include&amp;gt;&amp;gt;" style="text;html=1;strokeColor=none;fillColor=none;align=center;verticalAlign=middle;whiteSpace=wrap;rounded=0;fontFamily=Times New Roman;fontSize=14;" parent="VRqBJyvpK4GSvHRPGR0C-1" vertex="1">
                    <mxGeometry x="580" y="220" width="60" height="30" as="geometry"/>
                </mxCell>
                <mxCell id="VRqBJyvpK4GSvHRPGR0C-12" value="&amp;lt;&amp;lt;Extend&amp;gt;&amp;gt;" style="text;html=1;strokeColor=none;fillColor=none;align=center;verticalAlign=middle;whiteSpace=wrap;rounded=0;rotation=0;fontFamily=Times New Roman;fontSize=14;" parent="VRqBJyvpK4GSvHRPGR0C-1" vertex="1">
                    <mxGeometry x="315" y="480" width="60" height="30" as="geometry"/>
                </mxCell>
                <mxCell id="iYIVYhScicFOPCJVUQuJ-13" style="edgeStyle=none;html=1;entryX=0;entryY=1;entryDx=0;entryDy=0;fontFamily=Times New Roman;fontSize=14;dashed=1;" parent="VRqBJyvpK4GSvHRPGR0C-1" source="VRqBJyvpK4GSvHRPGR0C-13" target="VRqBJyvpK4GSvHRPGR0C-7" edge="1">
                    <mxGeometry relative="1" as="geometry"/>
                </mxCell>
                <mxCell id="VRqBJyvpK4GSvHRPGR0C-13" value="Xoá sản phẩm" style="ellipse;whiteSpace=wrap;html=1;fontFamily=Times New Roman;fontSize=14;" parent="VRqBJyvpK4GSvHRPGR0C-1" vertex="1">
                    <mxGeometry x="240" y="580" width="135" height="60" as="geometry"/>
                </mxCell>
                <mxCell id="cWxwuygdxYkwBnNqE1Dy-1" value="" style="endArrow=none;html=1;fontFamily=Times New Roman;fontSize=14;entryX=1;entryY=0;entryDx=0;entryDy=0;exitX=0;exitY=0.75;exitDx=0;exitDy=0;" parent="VRqBJyvpK4GSvHRPGR0C-1" source="VRqBJyvpK4GSvHRPGR0C-8" target="VRqBJyvpK4GSvHRPGR0C-7" edge="1">
                    <mxGeometry width="50" height="50" relative="1" as="geometry">
                        <mxPoint x="470" y="306" as="sourcePoint"/>
                        <mxPoint x="500" y="260" as="targetPoint"/>
                    </mxGeometry>
                </mxCell>
                <mxCell id="cWxwuygdxYkwBnNqE1Dy-3" value="&amp;lt;&amp;lt;Extend&amp;gt;&amp;gt;" style="text;html=1;strokeColor=none;fillColor=none;align=center;verticalAlign=middle;whiteSpace=wrap;rounded=0;rotation=0;fontFamily=Times New Roman;fontSize=14;" parent="VRqBJyvpK4GSvHRPGR0C-1" vertex="1">
                    <mxGeometry x="670" y="490" width="60" height="30" as="geometry"/>
                </mxCell>
                <mxCell id="cWxwuygdxYkwBnNqE1Dy-6" style="edgeStyle=none;html=1;entryX=1;entryY=1;entryDx=0;entryDy=0;fontFamily=Times New Roman;fontSize=14;dashed=1;" parent="VRqBJyvpK4GSvHRPGR0C-1" source="cWxwuygdxYkwBnNqE1Dy-4" target="VRqBJyvpK4GSvHRPGR0C-7" edge="1">
                    <mxGeometry relative="1" as="geometry"/>
                </mxCell>
                <mxCell id="iYIVYhScicFOPCJVUQuJ-6" style="edgeStyle=none;html=1;exitX=0.5;exitY=0;exitDx=0;exitDy=0;entryX=0.459;entryY=1.05;entryDx=0;entryDy=0;entryPerimeter=0;fontFamily=Times New Roman;fontSize=14;dashed=1;" parent="VRqBJyvpK4GSvHRPGR0C-1" source="cWxwuygdxYkwBnNqE1Dy-4" target="iYIVYhScicFOPCJVUQuJ-4" edge="1">
                    <mxGeometry relative="1" as="geometry"/>
                </mxCell>
                <mxCell id="cWxwuygdxYkwBnNqE1Dy-4" value="Sửa sản phẩm" style="ellipse;whiteSpace=wrap;html=1;fontFamily=Times New Roman;fontSize=14;" parent="VRqBJyvpK4GSvHRPGR0C-1" vertex="1">
                    <mxGeometry x="750" y="580" width="135" height="60" as="geometry"/>
                </mxCell>
                <mxCell id="iYIVYhScicFOPCJVUQuJ-0" value="&lt;b style=&quot;font-size: 14px;&quot;&gt;extension points&lt;/b&gt;" style="text;html=1;strokeColor=none;fillColor=none;align=center;verticalAlign=middle;whiteSpace=wrap;rounded=0;fontFamily=Times New Roman;fontSize=14;" parent="VRqBJyvpK4GSvHRPGR0C-1" vertex="1">
                    <mxGeometry x="497.5" y="290" width="160" height="15" as="geometry"/>
                </mxCell>
                <mxCell id="iYIVYhScicFOPCJVUQuJ-1" value="&amp;lt;&amp;lt;Extend&amp;gt;&amp;gt;" style="text;html=1;strokeColor=none;fillColor=none;align=center;verticalAlign=middle;whiteSpace=wrap;rounded=0;rotation=0;fontFamily=Times New Roman;fontSize=14;" parent="VRqBJyvpK4GSvHRPGR0C-1" vertex="1">
                    <mxGeometry x="730" y="290" width="60" height="30" as="geometry"/>
                </mxCell>
                <mxCell id="iYIVYhScicFOPCJVUQuJ-3" style="edgeStyle=none;html=1;entryX=0.98;entryY=0.429;entryDx=0;entryDy=0;entryPerimeter=0;fontFamily=Times New Roman;fontSize=14;dashed=1;" parent="VRqBJyvpK4GSvHRPGR0C-1" source="iYIVYhScicFOPCJVUQuJ-2" target="VRqBJyvpK4GSvHRPGR0C-7" edge="1">
                    <mxGeometry relative="1" as="geometry"/>
                </mxCell>
                <mxCell id="iYIVYhScicFOPCJVUQuJ-5" style="edgeStyle=none;html=1;entryX=0.5;entryY=0;entryDx=0;entryDy=0;fontFamily=Times New Roman;fontSize=14;dashed=1;" parent="VRqBJyvpK4GSvHRPGR0C-1" source="iYIVYhScicFOPCJVUQuJ-2" target="iYIVYhScicFOPCJVUQuJ-4" edge="1">
                    <mxGeometry relative="1" as="geometry"/>
                </mxCell>
                <mxCell id="iYIVYhScicFOPCJVUQuJ-2" value="Thêm sản phẩm" style="ellipse;whiteSpace=wrap;html=1;fontFamily=Times New Roman;fontSize=14;" parent="VRqBJyvpK4GSvHRPGR0C-1" vertex="1">
                    <mxGeometry x="815" y="290" width="135" height="60" as="geometry"/>
                </mxCell>
                <mxCell id="iYIVYhScicFOPCJVUQuJ-4" value="Kiểm tra thông tin" style="ellipse;whiteSpace=wrap;html=1;fontFamily=Times New Roman;fontSize=14;" parent="VRqBJyvpK4GSvHRPGR0C-1" vertex="1">
                    <mxGeometry x="790" y="430" width="135" height="60" as="geometry"/>
                </mxCell>
                <mxCell id="iYIVYhScicFOPCJVUQuJ-7" value="&amp;lt;&amp;lt;include&amp;gt;&amp;gt;" style="text;html=1;strokeColor=none;fillColor=none;align=center;verticalAlign=middle;whiteSpace=wrap;rounded=0;fontFamily=Times New Roman;fontSize=14;rotation=0;" parent="VRqBJyvpK4GSvHRPGR0C-1" vertex="1">
                    <mxGeometry x="852.5" y="530" width="60" height="30" as="geometry"/>
                </mxCell>
                <mxCell id="iYIVYhScicFOPCJVUQuJ-8" value="&amp;lt;&amp;lt;include&amp;gt;&amp;gt;" style="text;html=1;strokeColor=none;fillColor=none;align=center;verticalAlign=middle;whiteSpace=wrap;rounded=0;fontFamily=Times New Roman;fontSize=14;rotation=5;" parent="VRqBJyvpK4GSvHRPGR0C-1" vertex="1">
                    <mxGeometry x="880" y="380" width="60" height="30" as="geometry"/>
                </mxCell>
                <mxCell id="iYIVYhScicFOPCJVUQuJ-14" style="edgeStyle=none;html=1;entryX=0.473;entryY=1.029;entryDx=0;entryDy=0;entryPerimeter=0;fontFamily=Times New Roman;fontSize=14;dashed=1;" parent="VRqBJyvpK4GSvHRPGR0C-1" source="iYIVYhScicFOPCJVUQuJ-11" target="VRqBJyvpK4GSvHRPGR0C-7" edge="1">
                    <mxGeometry relative="1" as="geometry"/>
                </mxCell>
                <mxCell id="iYIVYhScicFOPCJVUQuJ-11" value="Tìm kiếm sản phẩm" style="ellipse;whiteSpace=wrap;html=1;fontFamily=Times New Roman;fontSize=14;" parent="VRqBJyvpK4GSvHRPGR0C-1" vertex="1">
                    <mxGeometry x="497.5" y="590" width="135" height="60" as="geometry"/>
                </mxCell>
                <mxCell id="iYIVYhScicFOPCJVUQuJ-12" value="&amp;lt;&amp;lt;Extend&amp;gt;&amp;gt;" style="text;html=1;strokeColor=none;fillColor=none;align=center;verticalAlign=middle;whiteSpace=wrap;rounded=0;rotation=0;fontFamily=Times New Roman;fontSize=14;" parent="VRqBJyvpK4GSvHRPGR0C-1" vertex="1">
                    <mxGeometry x="497.5" y="490" width="60" height="30" as="geometry"/>
                </mxCell>
            </root>
        </mxGraphModel>
    </diagram>
    <diagram name="admin category" id="KDYuL9IFVtRYhdzNa8Uv">
        <mxGraphModel dx="1258" dy="902" grid="1" gridSize="10" guides="1" tooltips="1" connect="1" arrows="1" fold="1" page="1" pageScale="1" pageWidth="1169" pageHeight="827" math="0" shadow="0">
            <root>
                <mxCell id="qGfB6EGcVpZKVL0fCLbC-0"/>
                <mxCell id="qGfB6EGcVpZKVL0fCLbC-1" parent="qGfB6EGcVpZKVL0fCLbC-0"/>
                <mxCell id="qGfB6EGcVpZKVL0fCLbC-2" style="edgeStyle=none;html=1;entryX=0;entryY=0.5;entryDx=0;entryDy=0;fontFamily=Times New Roman;fontSize=14;" parent="qGfB6EGcVpZKVL0fCLbC-1" source="qGfB6EGcVpZKVL0fCLbC-3" target="qGfB6EGcVpZKVL0fCLbC-4" edge="1">
                    <mxGeometry relative="1" as="geometry"/>
                </mxCell>
                <mxCell id="qGfB6EGcVpZKVL0fCLbC-3" value="Admin" style="shape=umlActor;verticalLabelPosition=bottom;verticalAlign=top;html=1;outlineConnect=0;fontFamily=Times New Roman;fontSize=14;" parent="qGfB6EGcVpZKVL0fCLbC-1" vertex="1">
                    <mxGeometry x="90" y="370" width="30" height="60" as="geometry"/>
                </mxCell>
                <mxCell id="qGfB6EGcVpZKVL0fCLbC-4" value="Quản lý thể loại" style="whiteSpace=wrap;html=1;verticalAlign=top;fontFamily=Times New Roman;fontSize=14;" parent="qGfB6EGcVpZKVL0fCLbC-1" vertex="1">
                    <mxGeometry x="200" y="80" width="800" height="640" as="geometry"/>
                </mxCell>
                <mxCell id="qGfB6EGcVpZKVL0fCLbC-5" value="Thêm, sửa, xoá, tìm kiếm thể loại" style="ellipse;whiteSpace=wrap;html=1;rounded=0;fontFamily=Times New Roman;fontSize=14;fontColor=default;fillColor=none;gradientColor=none;" parent="qGfB6EGcVpZKVL0fCLbC-1" vertex="1">
                    <mxGeometry x="450" y="260" width="245" height="140" as="geometry"/>
                </mxCell>
                <mxCell id="qGfB6EGcVpZKVL0fCLbC-6" style="edgeStyle=none;html=1;entryX=0.456;entryY=1.05;entryDx=0;entryDy=0;entryPerimeter=0;fontFamily=Times New Roman;fontSize=14;dashed=1;" parent="qGfB6EGcVpZKVL0fCLbC-1" source="qGfB6EGcVpZKVL0fCLbC-7" target="qGfB6EGcVpZKVL0fCLbC-8" edge="1">
                    <mxGeometry relative="1" as="geometry"/>
                </mxCell>
                <mxCell id="qGfB6EGcVpZKVL0fCLbC-7" value="Quản lý thể loại" style="text;html=1;strokeColor=none;fillColor=none;align=center;verticalAlign=middle;whiteSpace=wrap;rounded=0;fontFamily=Times New Roman;fontSize=14;fontColor=default;" parent="qGfB6EGcVpZKVL0fCLbC-1" vertex="1">
                    <mxGeometry x="487.5" y="260" width="170" height="30" as="geometry"/>
                </mxCell>
                <mxCell id="qGfB6EGcVpZKVL0fCLbC-8" value="" style="ellipse;whiteSpace=wrap;html=1;fontFamily=Times New Roman;fontSize=14;" parent="qGfB6EGcVpZKVL0fCLbC-1" vertex="1">
                    <mxGeometry x="515" y="160" width="125" height="40" as="geometry"/>
                </mxCell>
                <mxCell id="qGfB6EGcVpZKVL0fCLbC-9" value="Login" style="text;html=1;strokeColor=none;fillColor=none;align=center;verticalAlign=middle;whiteSpace=wrap;rounded=0;fontFamily=Times New Roman;fontSize=14;" parent="qGfB6EGcVpZKVL0fCLbC-1" vertex="1">
                    <mxGeometry x="525" y="170" width="100" height="20" as="geometry"/>
                </mxCell>
                <mxCell id="qGfB6EGcVpZKVL0fCLbC-10" value="&amp;lt;&amp;lt;include&amp;gt;&amp;gt;" style="text;html=1;strokeColor=none;fillColor=none;align=center;verticalAlign=middle;whiteSpace=wrap;rounded=0;fontFamily=Times New Roman;fontSize=14;" parent="qGfB6EGcVpZKVL0fCLbC-1" vertex="1">
                    <mxGeometry x="580" y="220" width="60" height="30" as="geometry"/>
                </mxCell>
                <mxCell id="qGfB6EGcVpZKVL0fCLbC-11" value="&amp;lt;&amp;lt;Extend&amp;gt;&amp;gt;" style="text;html=1;strokeColor=none;fillColor=none;align=center;verticalAlign=middle;whiteSpace=wrap;rounded=0;rotation=0;fontFamily=Times New Roman;fontSize=14;" parent="qGfB6EGcVpZKVL0fCLbC-1" vertex="1">
                    <mxGeometry x="315" y="480" width="60" height="30" as="geometry"/>
                </mxCell>
                <mxCell id="qGfB6EGcVpZKVL0fCLbC-12" style="edgeStyle=none;html=1;entryX=0;entryY=1;entryDx=0;entryDy=0;fontFamily=Times New Roman;fontSize=14;dashed=1;" parent="qGfB6EGcVpZKVL0fCLbC-1" source="qGfB6EGcVpZKVL0fCLbC-13" target="qGfB6EGcVpZKVL0fCLbC-5" edge="1">
                    <mxGeometry relative="1" as="geometry"/>
                </mxCell>
                <mxCell id="qGfB6EGcVpZKVL0fCLbC-13" value="Xoá thể loại" style="ellipse;whiteSpace=wrap;html=1;fontFamily=Times New Roman;fontSize=14;" parent="qGfB6EGcVpZKVL0fCLbC-1" vertex="1">
                    <mxGeometry x="240" y="580" width="135" height="60" as="geometry"/>
                </mxCell>
                <mxCell id="qGfB6EGcVpZKVL0fCLbC-14" value="" style="endArrow=none;html=1;fontFamily=Times New Roman;fontSize=14;entryX=1;entryY=0;entryDx=0;entryDy=0;exitX=0;exitY=0.75;exitDx=0;exitDy=0;" parent="qGfB6EGcVpZKVL0fCLbC-1" source="qGfB6EGcVpZKVL0fCLbC-7" target="qGfB6EGcVpZKVL0fCLbC-5" edge="1">
                    <mxGeometry width="50" height="50" relative="1" as="geometry">
                        <mxPoint x="470" y="306" as="sourcePoint"/>
                        <mxPoint x="500" y="260" as="targetPoint"/>
                    </mxGeometry>
                </mxCell>
                <mxCell id="qGfB6EGcVpZKVL0fCLbC-15" value="&amp;lt;&amp;lt;Extend&amp;gt;&amp;gt;" style="text;html=1;strokeColor=none;fillColor=none;align=center;verticalAlign=middle;whiteSpace=wrap;rounded=0;rotation=0;fontFamily=Times New Roman;fontSize=14;" parent="qGfB6EGcVpZKVL0fCLbC-1" vertex="1">
                    <mxGeometry x="670" y="490" width="60" height="30" as="geometry"/>
                </mxCell>
                <mxCell id="qGfB6EGcVpZKVL0fCLbC-16" style="edgeStyle=none;html=1;entryX=1;entryY=1;entryDx=0;entryDy=0;fontFamily=Times New Roman;fontSize=14;dashed=1;" parent="qGfB6EGcVpZKVL0fCLbC-1" source="qGfB6EGcVpZKVL0fCLbC-18" target="qGfB6EGcVpZKVL0fCLbC-5" edge="1">
                    <mxGeometry relative="1" as="geometry"/>
                </mxCell>
                <mxCell id="qGfB6EGcVpZKVL0fCLbC-17" style="edgeStyle=none;html=1;exitX=0.5;exitY=0;exitDx=0;exitDy=0;entryX=0.459;entryY=1.05;entryDx=0;entryDy=0;entryPerimeter=0;fontFamily=Times New Roman;fontSize=14;dashed=1;" parent="qGfB6EGcVpZKVL0fCLbC-1" source="qGfB6EGcVpZKVL0fCLbC-18" target="qGfB6EGcVpZKVL0fCLbC-24" edge="1">
                    <mxGeometry relative="1" as="geometry"/>
                </mxCell>
                <mxCell id="qGfB6EGcVpZKVL0fCLbC-18" value="Sửa thể loại" style="ellipse;whiteSpace=wrap;html=1;fontFamily=Times New Roman;fontSize=14;" parent="qGfB6EGcVpZKVL0fCLbC-1" vertex="1">
                    <mxGeometry x="750" y="580" width="135" height="60" as="geometry"/>
                </mxCell>
                <mxCell id="qGfB6EGcVpZKVL0fCLbC-19" value="&lt;b style=&quot;font-size: 14px;&quot;&gt;extension points&lt;/b&gt;" style="text;html=1;strokeColor=none;fillColor=none;align=center;verticalAlign=middle;whiteSpace=wrap;rounded=0;fontFamily=Times New Roman;fontSize=14;" parent="qGfB6EGcVpZKVL0fCLbC-1" vertex="1">
                    <mxGeometry x="497.5" y="290" width="160" height="15" as="geometry"/>
                </mxCell>
                <mxCell id="qGfB6EGcVpZKVL0fCLbC-20" value="&amp;lt;&amp;lt;Extend&amp;gt;&amp;gt;" style="text;html=1;strokeColor=none;fillColor=none;align=center;verticalAlign=middle;whiteSpace=wrap;rounded=0;rotation=0;fontFamily=Times New Roman;fontSize=14;" parent="qGfB6EGcVpZKVL0fCLbC-1" vertex="1">
                    <mxGeometry x="730" y="290" width="60" height="30" as="geometry"/>
                </mxCell>
                <mxCell id="qGfB6EGcVpZKVL0fCLbC-21" style="edgeStyle=none;html=1;entryX=0.98;entryY=0.429;entryDx=0;entryDy=0;entryPerimeter=0;fontFamily=Times New Roman;fontSize=14;dashed=1;" parent="qGfB6EGcVpZKVL0fCLbC-1" source="qGfB6EGcVpZKVL0fCLbC-23" target="qGfB6EGcVpZKVL0fCLbC-5" edge="1">
                    <mxGeometry relative="1" as="geometry"/>
                </mxCell>
                <mxCell id="qGfB6EGcVpZKVL0fCLbC-22" style="edgeStyle=none;html=1;entryX=0.5;entryY=0;entryDx=0;entryDy=0;fontFamily=Times New Roman;fontSize=14;dashed=1;" parent="qGfB6EGcVpZKVL0fCLbC-1" source="qGfB6EGcVpZKVL0fCLbC-23" target="qGfB6EGcVpZKVL0fCLbC-24" edge="1">
                    <mxGeometry relative="1" as="geometry"/>
                </mxCell>
                <mxCell id="qGfB6EGcVpZKVL0fCLbC-23" value="Thêm thể loại" style="ellipse;whiteSpace=wrap;html=1;fontFamily=Times New Roman;fontSize=14;" parent="qGfB6EGcVpZKVL0fCLbC-1" vertex="1">
                    <mxGeometry x="815" y="290" width="135" height="60" as="geometry"/>
                </mxCell>
                <mxCell id="qGfB6EGcVpZKVL0fCLbC-24" value="Kiểm tra thông tin" style="ellipse;whiteSpace=wrap;html=1;fontFamily=Times New Roman;fontSize=14;" parent="qGfB6EGcVpZKVL0fCLbC-1" vertex="1">
                    <mxGeometry x="790" y="430" width="135" height="60" as="geometry"/>
                </mxCell>
                <mxCell id="qGfB6EGcVpZKVL0fCLbC-25" value="&amp;lt;&amp;lt;include&amp;gt;&amp;gt;" style="text;html=1;strokeColor=none;fillColor=none;align=center;verticalAlign=middle;whiteSpace=wrap;rounded=0;fontFamily=Times New Roman;fontSize=14;rotation=0;" parent="qGfB6EGcVpZKVL0fCLbC-1" vertex="1">
                    <mxGeometry x="852.5" y="530" width="60" height="30" as="geometry"/>
                </mxCell>
                <mxCell id="qGfB6EGcVpZKVL0fCLbC-26" value="&amp;lt;&amp;lt;include&amp;gt;&amp;gt;" style="text;html=1;strokeColor=none;fillColor=none;align=center;verticalAlign=middle;whiteSpace=wrap;rounded=0;fontFamily=Times New Roman;fontSize=14;rotation=5;" parent="qGfB6EGcVpZKVL0fCLbC-1" vertex="1">
                    <mxGeometry x="880" y="380" width="60" height="30" as="geometry"/>
                </mxCell>
                <mxCell id="qGfB6EGcVpZKVL0fCLbC-27" style="edgeStyle=none;html=1;entryX=0.473;entryY=1.029;entryDx=0;entryDy=0;entryPerimeter=0;fontFamily=Times New Roman;fontSize=14;dashed=1;" parent="qGfB6EGcVpZKVL0fCLbC-1" source="qGfB6EGcVpZKVL0fCLbC-28" target="qGfB6EGcVpZKVL0fCLbC-5" edge="1">
                    <mxGeometry relative="1" as="geometry"/>
                </mxCell>
                <mxCell id="qGfB6EGcVpZKVL0fCLbC-28" value="Tìm kiếm thể loại" style="ellipse;whiteSpace=wrap;html=1;fontFamily=Times New Roman;fontSize=14;" parent="qGfB6EGcVpZKVL0fCLbC-1" vertex="1">
                    <mxGeometry x="497.5" y="590" width="135" height="60" as="geometry"/>
                </mxCell>
                <mxCell id="qGfB6EGcVpZKVL0fCLbC-29" value="&amp;lt;&amp;lt;Extend&amp;gt;&amp;gt;" style="text;html=1;strokeColor=none;fillColor=none;align=center;verticalAlign=middle;whiteSpace=wrap;rounded=0;rotation=0;fontFamily=Times New Roman;fontSize=14;" parent="qGfB6EGcVpZKVL0fCLbC-1" vertex="1">
                    <mxGeometry x="497.5" y="490" width="60" height="30" as="geometry"/>
                </mxCell>
            </root>
        </mxGraphModel>
    </diagram>
    <diagram name="admin cart" id="Kb6loa5knGI6rUMasgFc">
        <mxGraphModel dx="1258" dy="902" grid="1" gridSize="10" guides="1" tooltips="1" connect="1" arrows="1" fold="1" page="1" pageScale="1" pageWidth="1169" pageHeight="827" math="0" shadow="0">
            <root>
                <mxCell id="u7tqQ_Jn5OWbP6qNWCDj-0"/>
                <mxCell id="u7tqQ_Jn5OWbP6qNWCDj-1" parent="u7tqQ_Jn5OWbP6qNWCDj-0"/>
                <mxCell id="u7tqQ_Jn5OWbP6qNWCDj-2" style="edgeStyle=none;html=1;entryX=0;entryY=0.5;entryDx=0;entryDy=0;fontFamily=Times New Roman;fontSize=14;" parent="u7tqQ_Jn5OWbP6qNWCDj-1" source="u7tqQ_Jn5OWbP6qNWCDj-3" target="u7tqQ_Jn5OWbP6qNWCDj-4" edge="1">
                    <mxGeometry relative="1" as="geometry"/>
                </mxCell>
                <mxCell id="u7tqQ_Jn5OWbP6qNWCDj-3" value="Admin" style="shape=umlActor;verticalLabelPosition=bottom;verticalAlign=top;html=1;outlineConnect=0;fontFamily=Times New Roman;fontSize=14;" parent="u7tqQ_Jn5OWbP6qNWCDj-1" vertex="1">
                    <mxGeometry x="130" y="345" width="30" height="60" as="geometry"/>
                </mxCell>
                <mxCell id="u7tqQ_Jn5OWbP6qNWCDj-4" value="Quản lý đơn hàng" style="whiteSpace=wrap;html=1;verticalAlign=top;fontFamily=Times New Roman;fontSize=14;" parent="u7tqQ_Jn5OWbP6qNWCDj-1" vertex="1">
                    <mxGeometry x="240" y="90" width="680" height="570" as="geometry"/>
                </mxCell>
                <mxCell id="u7tqQ_Jn5OWbP6qNWCDj-5" value="" style="ellipse;whiteSpace=wrap;html=1;rounded=0;fontFamily=Times New Roman;fontSize=14;fontColor=default;fillColor=none;gradientColor=none;" parent="u7tqQ_Jn5OWbP6qNWCDj-1" vertex="1">
                    <mxGeometry x="450" y="260" width="245" height="140" as="geometry"/>
                </mxCell>
                <mxCell id="u7tqQ_Jn5OWbP6qNWCDj-6" style="edgeStyle=none;html=1;entryX=0.456;entryY=1.05;entryDx=0;entryDy=0;entryPerimeter=0;fontFamily=Times New Roman;fontSize=14;dashed=1;" parent="u7tqQ_Jn5OWbP6qNWCDj-1" source="u7tqQ_Jn5OWbP6qNWCDj-7" target="u7tqQ_Jn5OWbP6qNWCDj-8" edge="1">
                    <mxGeometry relative="1" as="geometry"/>
                </mxCell>
                <mxCell id="u7tqQ_Jn5OWbP6qNWCDj-7" value="Quản lý thể loại" style="text;html=1;strokeColor=none;fillColor=none;align=center;verticalAlign=middle;whiteSpace=wrap;rounded=0;fontFamily=Times New Roman;fontSize=14;fontColor=default;" parent="u7tqQ_Jn5OWbP6qNWCDj-1" vertex="1">
                    <mxGeometry x="487.5" y="260" width="170" height="30" as="geometry"/>
                </mxCell>
                <mxCell id="u7tqQ_Jn5OWbP6qNWCDj-8" value="" style="ellipse;whiteSpace=wrap;html=1;fontFamily=Times New Roman;fontSize=14;" parent="u7tqQ_Jn5OWbP6qNWCDj-1" vertex="1">
                    <mxGeometry x="515" y="160" width="125" height="40" as="geometry"/>
                </mxCell>
                <mxCell id="u7tqQ_Jn5OWbP6qNWCDj-9" value="Login" style="text;html=1;strokeColor=none;fillColor=none;align=center;verticalAlign=middle;whiteSpace=wrap;rounded=0;fontFamily=Times New Roman;fontSize=14;" parent="u7tqQ_Jn5OWbP6qNWCDj-1" vertex="1">
                    <mxGeometry x="525" y="170" width="100" height="20" as="geometry"/>
                </mxCell>
                <mxCell id="u7tqQ_Jn5OWbP6qNWCDj-10" value="&amp;lt;&amp;lt;include&amp;gt;&amp;gt;" style="text;html=1;strokeColor=none;fillColor=none;align=center;verticalAlign=middle;whiteSpace=wrap;rounded=0;fontFamily=Times New Roman;fontSize=14;" parent="u7tqQ_Jn5OWbP6qNWCDj-1" vertex="1">
                    <mxGeometry x="580" y="220" width="60" height="30" as="geometry"/>
                </mxCell>
                <mxCell id="u7tqQ_Jn5OWbP6qNWCDj-11" value="&amp;lt;&amp;lt;Extend&amp;gt;&amp;gt;" style="text;html=1;strokeColor=none;fillColor=none;align=center;verticalAlign=middle;whiteSpace=wrap;rounded=0;rotation=0;fontFamily=Times New Roman;fontSize=14;" parent="u7tqQ_Jn5OWbP6qNWCDj-1" vertex="1">
                    <mxGeometry x="385" y="450" width="60" height="30" as="geometry"/>
                </mxCell>
                <mxCell id="u7tqQ_Jn5OWbP6qNWCDj-12" style="edgeStyle=none;html=1;entryX=0.429;entryY=1.004;entryDx=0;entryDy=0;fontFamily=Times New Roman;fontSize=14;entryPerimeter=0;dashed=1;" parent="u7tqQ_Jn5OWbP6qNWCDj-1" source="u7tqQ_Jn5OWbP6qNWCDj-13" target="u7tqQ_Jn5OWbP6qNWCDj-5" edge="1">
                    <mxGeometry relative="1" as="geometry"/>
                </mxCell>
                <mxCell id="u7tqQ_Jn5OWbP6qNWCDj-13" value="Xuất danh sách đơn hàng" style="ellipse;whiteSpace=wrap;html=1;fontFamily=Times New Roman;fontSize=14;" parent="u7tqQ_Jn5OWbP6qNWCDj-1" vertex="1">
                    <mxGeometry x="310" y="540" width="135" height="60" as="geometry"/>
                </mxCell>
                <mxCell id="u7tqQ_Jn5OWbP6qNWCDj-14" value="" style="endArrow=none;html=1;fontFamily=Times New Roman;fontSize=14;entryX=1;entryY=0;entryDx=0;entryDy=0;exitX=0;exitY=0.75;exitDx=0;exitDy=0;" parent="u7tqQ_Jn5OWbP6qNWCDj-1" source="u7tqQ_Jn5OWbP6qNWCDj-7" target="u7tqQ_Jn5OWbP6qNWCDj-5" edge="1">
                    <mxGeometry width="50" height="50" relative="1" as="geometry">
                        <mxPoint x="470" y="306" as="sourcePoint"/>
                        <mxPoint x="500" y="260" as="targetPoint"/>
                    </mxGeometry>
                </mxCell>
                <mxCell id="u7tqQ_Jn5OWbP6qNWCDj-19" value="&lt;b style=&quot;font-size: 14px;&quot;&gt;extension points&lt;/b&gt;" style="text;html=1;strokeColor=none;fillColor=none;align=center;verticalAlign=middle;whiteSpace=wrap;rounded=0;fontFamily=Times New Roman;fontSize=14;" parent="u7tqQ_Jn5OWbP6qNWCDj-1" vertex="1">
                    <mxGeometry x="497.5" y="290" width="160" height="15" as="geometry"/>
                </mxCell>
                <mxCell id="u7tqQ_Jn5OWbP6qNWCDj-27" style="edgeStyle=none;html=1;fontFamily=Times New Roman;fontSize=14;entryX=0.612;entryY=1.004;entryDx=0;entryDy=0;entryPerimeter=0;dashed=1;" parent="u7tqQ_Jn5OWbP6qNWCDj-1" source="u7tqQ_Jn5OWbP6qNWCDj-28" target="u7tqQ_Jn5OWbP6qNWCDj-5" edge="1">
                    <mxGeometry relative="1" as="geometry">
                        <mxPoint x="684" y="363" as="targetPoint"/>
                    </mxGeometry>
                </mxCell>
                <mxCell id="u7tqQ_Jn5OWbP6qNWCDj-28" value="Cập nhập trang thái đơn hàng" style="ellipse;whiteSpace=wrap;html=1;fontFamily=Times New Roman;fontSize=14;" parent="u7tqQ_Jn5OWbP6qNWCDj-1" vertex="1">
                    <mxGeometry x="710" y="540" width="130" height="60" as="geometry"/>
                </mxCell>
                <mxCell id="u7tqQ_Jn5OWbP6qNWCDj-29" value="&amp;lt;&amp;lt;Extend&amp;gt;&amp;gt;" style="text;html=1;strokeColor=none;fillColor=none;align=center;verticalAlign=middle;whiteSpace=wrap;rounded=0;rotation=0;fontFamily=Times New Roman;fontSize=14;" parent="u7tqQ_Jn5OWbP6qNWCDj-1" vertex="1">
                    <mxGeometry x="680" y="450" width="60" height="30" as="geometry"/>
                </mxCell>
                <mxCell id="RPVtF087Jm_XFm0QHs-v-0" value="Cập nhập trạng thái đơn hàng&lt;br style=&quot;border-color: var(--border-color);&quot;&gt;Xuất danh sách đơn hàng&lt;br style=&quot;border-color: var(--border-color);&quot;&gt;Xem đơn hàng" style="text;html=1;strokeColor=none;fillColor=none;align=center;verticalAlign=middle;whiteSpace=wrap;rounded=0;fontFamily=Times New Roman;fontSize=14;" parent="u7tqQ_Jn5OWbP6qNWCDj-1" vertex="1">
                    <mxGeometry x="466.25" y="310" width="217.5" height="70" as="geometry"/>
                </mxCell>
            </root>
        </mxGraphModel>
    </diagram>
    <diagram id="-vniWV71IXSo7ZIK0Ft3" name="Biểu đồ tuần tự add cart">
        <mxGraphModel dx="1710" dy="902" grid="1" gridSize="10" guides="1" tooltips="1" connect="1" arrows="1" fold="1" page="1" pageScale="1" pageWidth="1169" pageHeight="827" math="0" shadow="0">
            <root>
                <mxCell id="0"/>
                <mxCell id="1" parent="0"/>
                <mxCell id="lLAuZppuoyZLtjNAYtm4-5" value="List Product Page" style="shape=umlLifeline;participant=umlBoundary;perimeter=lifelinePerimeter;container=1;collapsible=0;recursiveResize=0;verticalAlign=top;spacingTop=36;outlineConnect=0;fontFamily=Times New Roman;fontSize=14;fontStyle=0;labelBackgroundColor=default;labelBorderColor=none;whiteSpace=wrap;html=1;" vertex="1" parent="1">
                    <mxGeometry x="240" y="40" width="80" height="560" as="geometry"/>
                </mxCell>
                <mxCell id="lLAuZppuoyZLtjNAYtm4-12" value="" style="html=1;points=[];perimeter=orthogonalPerimeter;labelBackgroundColor=default;labelBorderColor=none;fontFamily=Times New Roman;fontSize=14;" vertex="1" parent="lLAuZppuoyZLtjNAYtm4-5">
                    <mxGeometry x="35" y="110" width="10" height="80" as="geometry"/>
                </mxCell>
                <mxCell id="lLAuZppuoyZLtjNAYtm4-15" value="" style="endArrow=open;endFill=1;endSize=12;html=1;fontFamily=Times New Roman;fontSize=14;entryX=0.1;entryY=0.156;entryDx=0;entryDy=0;entryPerimeter=0;" edge="1" parent="lLAuZppuoyZLtjNAYtm4-5" target="lLAuZppuoyZLtjNAYtm4-16">
                    <mxGeometry width="160" relative="1" as="geometry">
                        <mxPoint x="45" y="140" as="sourcePoint"/>
                        <mxPoint x="205" y="140" as="targetPoint"/>
                    </mxGeometry>
                </mxCell>
                <mxCell id="lLAuZppuoyZLtjNAYtm4-6" value="User" style="shape=umlLifeline;participant=umlActor;perimeter=lifelinePerimeter;whiteSpace=wrap;html=1;container=1;collapsible=0;recursiveResize=0;verticalAlign=top;spacingTop=36;outlineConnect=0;labelBorderColor=none;fontFamily=Times New Roman;fontSize=14;fontStyle=0;labelBackgroundColor=default;" vertex="1" parent="1">
                    <mxGeometry x="70" y="40" width="20" height="560" as="geometry"/>
                </mxCell>
                <mxCell id="lLAuZppuoyZLtjNAYtm4-13" value="" style="endArrow=open;endFill=1;endSize=12;html=1;fontFamily=Times New Roman;fontSize=14;entryX=0.1;entryY=0.138;entryDx=0;entryDy=0;entryPerimeter=0;" edge="1" parent="lLAuZppuoyZLtjNAYtm4-6" target="lLAuZppuoyZLtjNAYtm4-12">
                    <mxGeometry width="160" relative="1" as="geometry">
                        <mxPoint x="10" y="120" as="sourcePoint"/>
                        <mxPoint x="200" y="120" as="targetPoint"/>
                    </mxGeometry>
                </mxCell>
                <mxCell id="lLAuZppuoyZLtjNAYtm4-34" value="" style="endArrow=open;endFill=1;endSize=12;html=1;fontFamily=Times New Roman;fontSize=14;" edge="1" parent="lLAuZppuoyZLtjNAYtm4-6" target="lLAuZppuoyZLtjNAYtm4-8">
                    <mxGeometry width="160" relative="1" as="geometry">
                        <mxPoint x="10" y="360" as="sourcePoint"/>
                        <mxPoint x="170" y="360" as="targetPoint"/>
                    </mxGeometry>
                </mxCell>
                <mxCell id="xaGBwa3TKmMVZ-xwmsrP-1" value="" style="html=1;points=[];perimeter=orthogonalPerimeter;labelBackgroundColor=default;labelBorderColor=none;fontFamily=Times New Roman;fontSize=14;" vertex="1" parent="lLAuZppuoyZLtjNAYtm4-6">
                    <mxGeometry x="5" y="80" width="10" height="470" as="geometry"/>
                </mxCell>
                <mxCell id="lLAuZppuoyZLtjNAYtm4-8" value="Product Detail Page" style="shape=umlLifeline;participant=umlBoundary;perimeter=lifelinePerimeter;container=1;collapsible=0;recursiveResize=0;verticalAlign=top;spacingTop=36;outlineConnect=0;fontFamily=Times New Roman;fontSize=14;fontStyle=0;labelBackgroundColor=default;labelBorderColor=none;whiteSpace=wrap;html=1;" vertex="1" parent="1">
                    <mxGeometry x="440" y="45" width="80" height="555" as="geometry"/>
                </mxCell>
                <mxCell id="lLAuZppuoyZLtjNAYtm4-16" value="" style="html=1;points=[];perimeter=orthogonalPerimeter;labelBackgroundColor=default;labelBorderColor=none;fontFamily=Times New Roman;fontSize=14;" vertex="1" parent="lLAuZppuoyZLtjNAYtm4-8">
                    <mxGeometry x="35" y="110" width="10" height="160" as="geometry"/>
                </mxCell>
                <mxCell id="lLAuZppuoyZLtjNAYtm4-33" value="" style="html=1;points=[];perimeter=orthogonalPerimeter;labelBackgroundColor=default;labelBorderColor=none;fontFamily=Times New Roman;fontSize=14;" vertex="1" parent="lLAuZppuoyZLtjNAYtm4-8">
                    <mxGeometry x="35" y="329" width="10" height="191" as="geometry"/>
                </mxCell>
                <mxCell id="lLAuZppuoyZLtjNAYtm4-37" value="" style="endArrow=open;endFill=1;endSize=12;html=1;fontFamily=Times New Roman;fontSize=14;" edge="1" parent="lLAuZppuoyZLtjNAYtm4-8">
                    <mxGeometry width="160" relative="1" as="geometry">
                        <mxPoint x="46" y="365" as="sourcePoint"/>
                        <mxPoint x="225.5" y="365" as="targetPoint"/>
                    </mxGeometry>
                </mxCell>
                <mxCell id="lLAuZppuoyZLtjNAYtm4-9" value="Cart Controller" style="shape=umlLifeline;participant=umlControl;perimeter=lifelinePerimeter;whiteSpace=wrap;html=1;container=1;collapsible=0;recursiveResize=0;verticalAlign=top;spacingTop=36;outlineConnect=0;labelBackgroundColor=default;labelBorderColor=none;fontFamily=Times New Roman;fontSize=14;" vertex="1" parent="1">
                    <mxGeometry x="640" y="40" width="60" height="560" as="geometry"/>
                </mxCell>
                <mxCell id="lLAuZppuoyZLtjNAYtm4-36" value="" style="html=1;points=[];perimeter=orthogonalPerimeter;labelBackgroundColor=default;labelBorderColor=none;fontFamily=Times New Roman;fontSize=14;" vertex="1" parent="lLAuZppuoyZLtjNAYtm4-9">
                    <mxGeometry x="25" y="360" width="10" height="80" as="geometry"/>
                </mxCell>
                <mxCell id="lLAuZppuoyZLtjNAYtm4-40" value="" style="endArrow=open;endFill=1;endSize=12;html=1;fontFamily=Times New Roman;fontSize=14;" edge="1" parent="lLAuZppuoyZLtjNAYtm4-9" target="lLAuZppuoyZLtjNAYtm4-11">
                    <mxGeometry width="160" relative="1" as="geometry">
                        <mxPoint x="37" y="390" as="sourcePoint"/>
                        <mxPoint x="336.5" y="390" as="targetPoint"/>
                    </mxGeometry>
                </mxCell>
                <mxCell id="lLAuZppuoyZLtjNAYtm4-10" value="Product Entity" style="shape=umlLifeline;participant=umlEntity;perimeter=lifelinePerimeter;whiteSpace=wrap;html=1;container=1;collapsible=0;recursiveResize=0;verticalAlign=top;spacingTop=36;outlineConnect=0;labelBackgroundColor=default;labelBorderColor=none;fontFamily=Times New Roman;fontSize=14;" vertex="1" parent="1">
                    <mxGeometry x="1000" y="40" width="40" height="560" as="geometry"/>
                </mxCell>
                <mxCell id="6KJb7Ad8hH7738jghDUP-3" value="" style="html=1;points=[];perimeter=orthogonalPerimeter;labelBackgroundColor=default;labelBorderColor=none;fontFamily=Times New Roman;fontSize=14;" vertex="1" parent="lLAuZppuoyZLtjNAYtm4-10">
                    <mxGeometry x="15" y="190" width="10" height="64" as="geometry"/>
                </mxCell>
                <mxCell id="lLAuZppuoyZLtjNAYtm4-11" value="Cart Entity" style="shape=umlLifeline;participant=umlEntity;perimeter=lifelinePerimeter;whiteSpace=wrap;html=1;container=1;collapsible=0;recursiveResize=0;verticalAlign=top;spacingTop=36;outlineConnect=0;labelBackgroundColor=default;labelBorderColor=none;fontFamily=Times New Roman;fontSize=14;" vertex="1" parent="1">
                    <mxGeometry x="1160" y="40" width="40" height="560" as="geometry"/>
                </mxCell>
                <mxCell id="lLAuZppuoyZLtjNAYtm4-39" value="" style="html=1;points=[];perimeter=orthogonalPerimeter;labelBackgroundColor=default;labelBorderColor=none;fontFamily=Times New Roman;fontSize=14;" vertex="1" parent="lLAuZppuoyZLtjNAYtm4-11">
                    <mxGeometry x="15" y="374" width="10" height="80" as="geometry"/>
                </mxCell>
                <mxCell id="lLAuZppuoyZLtjNAYtm4-49" value="" style="endArrow=open;endFill=1;endSize=12;html=1;fontFamily=Times New Roman;fontSize=14;" edge="1" parent="lLAuZppuoyZLtjNAYtm4-11">
                    <mxGeometry width="160" relative="1" as="geometry">
                        <mxPoint x="26" y="410" as="sourcePoint"/>
                        <mxPoint x="435.5" y="410" as="targetPoint"/>
                    </mxGeometry>
                </mxCell>
                <mxCell id="lLAuZppuoyZLtjNAYtm4-14" value="1.Chọn sản phẩm" style="text;html=1;align=center;verticalAlign=middle;resizable=0;points=[];autosize=1;strokeColor=none;fillColor=none;fontSize=14;fontFamily=Times New Roman;" vertex="1" parent="1">
                    <mxGeometry x="120" y="135" width="120" height="30" as="geometry"/>
                </mxCell>
                <mxCell id="lLAuZppuoyZLtjNAYtm4-17" value="2.Xem chi tiết sản phẩm" style="text;html=1;align=center;verticalAlign=middle;resizable=0;points=[];autosize=1;strokeColor=none;fillColor=none;fontSize=14;fontFamily=Times New Roman;" vertex="1" parent="1">
                    <mxGeometry x="290" y="155" width="160" height="30" as="geometry"/>
                </mxCell>
                <mxCell id="lLAuZppuoyZLtjNAYtm4-19" value="" style="endArrow=open;endFill=1;endSize=12;html=1;fontFamily=Times New Roman;fontSize=14;entryX=-0.318;entryY=0.158;entryDx=0;entryDy=0;entryPerimeter=0;" edge="1" parent="1" target="lLAuZppuoyZLtjNAYtm4-22">
                    <mxGeometry width="160" relative="1" as="geometry">
                        <mxPoint x="485" y="200" as="sourcePoint"/>
                        <mxPoint x="860" y="200" as="targetPoint"/>
                    </mxGeometry>
                </mxCell>
                <mxCell id="lLAuZppuoyZLtjNAYtm4-21" value="Database" style="shape=umlLifeline;perimeter=lifelinePerimeter;whiteSpace=wrap;html=1;container=1;collapsible=0;recursiveResize=0;outlineConnect=0;labelBackgroundColor=default;labelBorderColor=none;fontFamily=Times New Roman;fontSize=14;" vertex="1" parent="1">
                    <mxGeometry x="1320" y="40" width="120" height="560" as="geometry"/>
                </mxCell>
                <mxCell id="lLAuZppuoyZLtjNAYtm4-23" value="" style="html=1;points=[];perimeter=orthogonalPerimeter;labelBackgroundColor=default;labelBorderColor=none;fontFamily=Times New Roman;fontSize=14;" vertex="1" parent="lLAuZppuoyZLtjNAYtm4-21">
                    <mxGeometry x="55" y="160" width="10" height="60" as="geometry"/>
                </mxCell>
                <mxCell id="lLAuZppuoyZLtjNAYtm4-50" value="11. Lưu thông tin vào session" style="text;html=1;align=center;verticalAlign=middle;resizable=0;points=[];autosize=1;strokeColor=none;fillColor=none;fontSize=14;fontFamily=Times New Roman;" vertex="1" parent="lLAuZppuoyZLtjNAYtm4-21">
                    <mxGeometry x="-70" y="385" width="190" height="30" as="geometry"/>
                </mxCell>
                <mxCell id="lLAuZppuoyZLtjNAYtm4-20" value="3.Lấy thông tin chi tiết sản phẩm" style="text;html=1;align=center;verticalAlign=middle;resizable=0;points=[];autosize=1;strokeColor=none;fillColor=none;fontSize=14;fontFamily=Times New Roman;" vertex="1" parent="1">
                    <mxGeometry x="530" y="180" width="210" height="30" as="geometry"/>
                </mxCell>
                <mxCell id="lLAuZppuoyZLtjNAYtm4-24" value="" style="endArrow=open;endFill=1;endSize=12;html=1;fontFamily=Times New Roman;fontSize=14;entryX=0;entryY=0.125;entryDx=0;entryDy=0;entryPerimeter=0;" edge="1" parent="1" source="6KJb7Ad8hH7738jghDUP-2" target="lLAuZppuoyZLtjNAYtm4-23">
                    <mxGeometry width="160" relative="1" as="geometry">
                        <mxPoint x="1025" y="210" as="sourcePoint"/>
                        <mxPoint x="1185" y="210" as="targetPoint"/>
                    </mxGeometry>
                </mxCell>
                <mxCell id="lLAuZppuoyZLtjNAYtm4-25" value="4. Truy vấn thông tin sản phẩm" style="text;html=1;align=center;verticalAlign=middle;resizable=0;points=[];autosize=1;strokeColor=none;fillColor=none;fontSize=14;fontFamily=Times New Roman;" vertex="1" parent="1">
                    <mxGeometry x="1068" y="185" width="200" height="30" as="geometry"/>
                </mxCell>
                <mxCell id="lLAuZppuoyZLtjNAYtm4-27" value="" style="endArrow=block;dashed=1;endFill=0;endSize=12;html=1;fontFamily=Times New Roman;fontSize=14;" edge="1" parent="1" source="lLAuZppuoyZLtjNAYtm4-21">
                    <mxGeometry width="160" relative="1" as="geometry">
                        <mxPoint x="1358" y="260" as="sourcePoint"/>
                        <mxPoint x="1028" y="260" as="targetPoint"/>
                    </mxGeometry>
                </mxCell>
                <mxCell id="lLAuZppuoyZLtjNAYtm4-29" value="5. Trả về thông tin sản phẩm" style="text;html=1;align=center;verticalAlign=middle;resizable=0;points=[];autosize=1;strokeColor=none;fillColor=none;fontSize=14;fontFamily=Times New Roman;" vertex="1" parent="1">
                    <mxGeometry x="1070" y="236" width="180" height="30" as="geometry"/>
                </mxCell>
                <mxCell id="lLAuZppuoyZLtjNAYtm4-31" value="" style="endArrow=block;dashed=1;endFill=0;endSize=12;html=1;fontFamily=Times New Roman;fontSize=14;" edge="1" parent="1" source="6KJb7Ad8hH7738jghDUP-2">
                    <mxGeometry width="160" relative="1" as="geometry">
                        <mxPoint x="815" y="274" as="sourcePoint"/>
                        <mxPoint x="485" y="274" as="targetPoint"/>
                    </mxGeometry>
                </mxCell>
                <mxCell id="lLAuZppuoyZLtjNAYtm4-32" value="7. Trả về thông tin sản phẩm" style="text;html=1;align=center;verticalAlign=middle;resizable=0;points=[];autosize=1;strokeColor=none;fillColor=none;fontSize=14;fontFamily=Times New Roman;" vertex="1" parent="1">
                    <mxGeometry x="532" y="250" width="180" height="30" as="geometry"/>
                </mxCell>
                <mxCell id="lLAuZppuoyZLtjNAYtm4-35" value="8. Thêm sản phẩm vào giỏ hàng" style="text;html=1;align=center;verticalAlign=middle;resizable=0;points=[];autosize=1;strokeColor=none;fillColor=none;fontSize=14;fontFamily=Times New Roman;" vertex="1" parent="1">
                    <mxGeometry x="220" y="375" width="200" height="30" as="geometry"/>
                </mxCell>
                <mxCell id="lLAuZppuoyZLtjNAYtm4-38" value="9. Gửi yêu cầu thêm sản &lt;br&gt;phẩm vào giỏ hàng" style="text;html=1;align=center;verticalAlign=middle;resizable=0;points=[];autosize=1;strokeColor=none;fillColor=none;fontSize=14;fontFamily=Times New Roman;" vertex="1" parent="1">
                    <mxGeometry x="490" y="370" width="160" height="50" as="geometry"/>
                </mxCell>
                <mxCell id="lLAuZppuoyZLtjNAYtm4-41" value="10. Tạo giỏ hàng và thêm sản phẩm" style="text;html=1;align=center;verticalAlign=middle;resizable=0;points=[];autosize=1;strokeColor=none;fillColor=none;fontSize=14;fontFamily=Times New Roman;" vertex="1" parent="1">
                    <mxGeometry x="709" y="405" width="220" height="30" as="geometry"/>
                </mxCell>
                <mxCell id="lLAuZppuoyZLtjNAYtm4-46" value="Session" style="shape=umlLifeline;perimeter=lifelinePerimeter;whiteSpace=wrap;html=1;container=1;collapsible=0;recursiveResize=0;outlineConnect=0;labelBackgroundColor=default;labelBorderColor=none;fontFamily=Times New Roman;fontSize=14;" vertex="1" parent="1">
                    <mxGeometry x="1550" y="40" width="100" height="560" as="geometry"/>
                </mxCell>
                <mxCell id="lLAuZppuoyZLtjNAYtm4-47" value="" style="html=1;points=[];perimeter=orthogonalPerimeter;labelBackgroundColor=default;labelBorderColor=none;fontFamily=Times New Roman;fontSize=14;fillColor=rgb(255, 255, 255);" vertex="1" parent="lLAuZppuoyZLtjNAYtm4-46">
                    <mxGeometry x="45" y="395" width="10" height="125" as="geometry"/>
                </mxCell>
                <mxCell id="lLAuZppuoyZLtjNAYtm4-51" value="" style="endArrow=block;dashed=1;endFill=0;endSize=12;html=1;fontFamily=Times New Roman;fontSize=14;" edge="1" parent="1" source="lLAuZppuoyZLtjNAYtm4-46">
                    <mxGeometry width="160" relative="1" as="geometry">
                        <mxPoint x="1388" y="544" as="sourcePoint"/>
                        <mxPoint x="487.5" y="544" as="targetPoint"/>
                    </mxGeometry>
                </mxCell>
                <mxCell id="lLAuZppuoyZLtjNAYtm4-52" value="12. Thêm sản phẩm vào giỏ hàng thành công" style="text;html=1;align=center;verticalAlign=middle;resizable=0;points=[];autosize=1;strokeColor=none;fillColor=none;fontSize=14;fontFamily=Times New Roman;" vertex="1" parent="1">
                    <mxGeometry x="710" y="520" width="270" height="30" as="geometry"/>
                </mxCell>
                <mxCell id="6KJb7Ad8hH7738jghDUP-2" value="Product Controller" style="shape=umlLifeline;participant=umlControl;perimeter=lifelinePerimeter;whiteSpace=wrap;html=1;container=1;collapsible=0;recursiveResize=0;verticalAlign=top;spacingTop=36;outlineConnect=0;labelBackgroundColor=default;labelBorderColor=none;fontFamily=Times New Roman;fontSize=14;" vertex="1" parent="1">
                    <mxGeometry x="840" y="40" width="40" height="560" as="geometry"/>
                </mxCell>
                <mxCell id="lLAuZppuoyZLtjNAYtm4-22" value="" style="html=1;points=[];perimeter=orthogonalPerimeter;labelBackgroundColor=default;labelBorderColor=none;fontFamily=Times New Roman;fontSize=14;" vertex="1" parent="6KJb7Ad8hH7738jghDUP-2">
                    <mxGeometry x="15" y="145" width="10" height="95" as="geometry"/>
                </mxCell>
                <mxCell id="6KJb7Ad8hH7738jghDUP-4" value="6. Trả về thông&lt;br&gt;&amp;nbsp;tin sản phẩm" style="text;html=1;align=center;verticalAlign=middle;resizable=0;points=[];autosize=1;strokeColor=none;fillColor=none;fontSize=14;fontFamily=Times New Roman;" vertex="1" parent="1">
                    <mxGeometry x="880" y="226" width="110" height="50" as="geometry"/>
                </mxCell>
                <mxCell id="6KJb7Ad8hH7738jghDUP-5" value="" style="endArrow=block;dashed=1;endFill=0;endSize=12;html=1;fontFamily=Times New Roman;fontSize=14;exitX=-0.068;exitY=0.614;exitDx=0;exitDy=0;exitPerimeter=0;" edge="1" parent="1" source="6KJb7Ad8hH7738jghDUP-3">
                    <mxGeometry width="160" relative="1" as="geometry">
                        <mxPoint x="1211.5" y="270" as="sourcePoint"/>
                        <mxPoint x="860" y="270" as="targetPoint"/>
                    </mxGeometry>
                </mxCell>
                <mxCell id="xaGBwa3TKmMVZ-xwmsrP-2" value="" style="endArrow=block;dashed=1;endFill=0;endSize=12;html=1;fontFamily=Times New Roman;fontSize=14;" edge="1" parent="1" target="lLAuZppuoyZLtjNAYtm4-6">
                    <mxGeometry width="160" relative="1" as="geometry">
                        <mxPoint x="474.5" y="560" as="sourcePoint"/>
                        <mxPoint x="100" y="560" as="targetPoint"/>
                    </mxGeometry>
                </mxCell>
                <mxCell id="spCYxwhm4xOnp542ftGP-1" value="13. Hiển thị" style="text;html=1;align=center;verticalAlign=middle;resizable=0;points=[];autosize=1;strokeColor=none;fillColor=none;fontSize=14;fontFamily=Times New Roman;" vertex="1" parent="1">
                    <mxGeometry x="180" y="536" width="90" height="30" as="geometry"/>
                </mxCell>
            </root>
        </mxGraphModel>
    </diagram>
    <diagram name="Biểu đồ tuần tự update cart" id="SJY1Kjn0EdJodys2LXMt">
        <mxGraphModel dx="1425" dy="752" grid="1" gridSize="10" guides="1" tooltips="1" connect="1" arrows="1" fold="1" page="1" pageScale="1" pageWidth="1169" pageHeight="827" math="0" shadow="0">
            <root>
                <mxCell id="c4bEmXTKjH63eX3M-lvr-0"/>
                <mxCell id="c4bEmXTKjH63eX3M-lvr-1" parent="c4bEmXTKjH63eX3M-lvr-0"/>
                <mxCell id="c4bEmXTKjH63eX3M-lvr-2" value="Cart Page" style="shape=umlLifeline;participant=umlBoundary;perimeter=lifelinePerimeter;container=1;collapsible=0;recursiveResize=0;verticalAlign=top;spacingTop=36;outlineConnect=0;fontFamily=Times New Roman;fontSize=14;fontStyle=0;labelBackgroundColor=default;labelBorderColor=none;whiteSpace=wrap;html=1;" vertex="1" parent="c4bEmXTKjH63eX3M-lvr-1">
                    <mxGeometry x="340" y="40" width="80" height="560" as="geometry"/>
                </mxCell>
                <mxCell id="5y4dJK8KaFOtyDJmOWnI-2" value="" style="html=1;points=[];perimeter=orthogonalPerimeter;labelBackgroundColor=default;labelBorderColor=none;fontFamily=Times New Roman;fontSize=14;" vertex="1" parent="c4bEmXTKjH63eX3M-lvr-2">
                    <mxGeometry x="35" y="100" width="10" height="180" as="geometry"/>
                </mxCell>
                <mxCell id="teurzVv6Pnht3kjDeuW_-6" value="" style="html=1;points=[];perimeter=orthogonalPerimeter;labelBackgroundColor=default;labelBorderColor=none;fontFamily=Times New Roman;fontSize=14;" vertex="1" parent="c4bEmXTKjH63eX3M-lvr-2">
                    <mxGeometry x="35" y="340" width="10" height="210" as="geometry"/>
                </mxCell>
                <mxCell id="c4bEmXTKjH63eX3M-lvr-5" value="User" style="shape=umlLifeline;participant=umlActor;perimeter=lifelinePerimeter;whiteSpace=wrap;html=1;container=1;collapsible=0;recursiveResize=0;verticalAlign=top;spacingTop=36;outlineConnect=0;labelBorderColor=none;fontFamily=Times New Roman;fontSize=14;fontStyle=0;labelBackgroundColor=default;" vertex="1" parent="c4bEmXTKjH63eX3M-lvr-1">
                    <mxGeometry x="170" y="40" width="20" height="561" as="geometry"/>
                </mxCell>
                <mxCell id="5y4dJK8KaFOtyDJmOWnI-6" value="" style="endArrow=open;endFill=1;endSize=12;html=1;fontFamily=Times New Roman;fontSize=14;" edge="1" parent="c4bEmXTKjH63eX3M-lvr-5" target="c4bEmXTKjH63eX3M-lvr-2">
                    <mxGeometry width="160" relative="1" as="geometry">
                        <mxPoint x="10" y="120" as="sourcePoint"/>
                        <mxPoint x="170" y="120" as="targetPoint"/>
                    </mxGeometry>
                </mxCell>
                <mxCell id="CWgkb4QMGR2-uE63qvx5-1" value="" style="html=1;points=[];perimeter=orthogonalPerimeter;labelBackgroundColor=default;labelBorderColor=none;fontFamily=Times New Roman;fontSize=14;" vertex="1" parent="c4bEmXTKjH63eX3M-lvr-5">
                    <mxGeometry x="5" y="90" width="10" height="471" as="geometry"/>
                </mxCell>
                <mxCell id="c4bEmXTKjH63eX3M-lvr-12" value="Cart Controller" style="shape=umlLifeline;participant=umlControl;perimeter=lifelinePerimeter;whiteSpace=wrap;html=1;container=1;collapsible=0;recursiveResize=0;verticalAlign=top;spacingTop=36;outlineConnect=0;labelBackgroundColor=default;labelBorderColor=none;fontFamily=Times New Roman;fontSize=14;" vertex="1" parent="c4bEmXTKjH63eX3M-lvr-1">
                    <mxGeometry x="540" y="40" width="40" height="560" as="geometry"/>
                </mxCell>
                <mxCell id="5y4dJK8KaFOtyDJmOWnI-5" value="" style="html=1;points=[];perimeter=orthogonalPerimeter;labelBackgroundColor=default;labelBorderColor=none;fontFamily=Times New Roman;fontSize=14;" vertex="1" parent="c4bEmXTKjH63eX3M-lvr-12">
                    <mxGeometry x="15" y="130" width="10" height="160" as="geometry"/>
                </mxCell>
                <mxCell id="teurzVv6Pnht3kjDeuW_-9" value="" style="html=1;points=[];perimeter=orthogonalPerimeter;labelBackgroundColor=default;labelBorderColor=none;fontFamily=Times New Roman;fontSize=14;" vertex="1" parent="c4bEmXTKjH63eX3M-lvr-12">
                    <mxGeometry x="15" y="370" width="10" height="160" as="geometry"/>
                </mxCell>
                <mxCell id="c4bEmXTKjH63eX3M-lvr-17" value="Cart Entity" style="shape=umlLifeline;participant=umlEntity;perimeter=lifelinePerimeter;whiteSpace=wrap;html=1;container=1;collapsible=0;recursiveResize=0;verticalAlign=top;spacingTop=36;outlineConnect=0;labelBackgroundColor=default;labelBorderColor=none;fontFamily=Times New Roman;fontSize=14;" vertex="1" parent="c4bEmXTKjH63eX3M-lvr-1">
                    <mxGeometry x="720" y="40" width="40" height="560" as="geometry"/>
                </mxCell>
                <mxCell id="wRbz4YosDQ6MbueglRD1-8" value="" style="html=1;points=[];perimeter=orthogonalPerimeter;labelBackgroundColor=default;labelBorderColor=none;fontFamily=Times New Roman;fontSize=14;" vertex="1" parent="c4bEmXTKjH63eX3M-lvr-17">
                    <mxGeometry x="15" y="200" width="10" height="60" as="geometry"/>
                </mxCell>
                <mxCell id="teurzVv6Pnht3kjDeuW_-11" value="" style="html=1;points=[];perimeter=orthogonalPerimeter;labelBackgroundColor=default;labelBorderColor=none;fontFamily=Times New Roman;fontSize=14;" vertex="1" parent="c4bEmXTKjH63eX3M-lvr-17">
                    <mxGeometry x="15" y="374" width="10" height="160" as="geometry"/>
                </mxCell>
                <mxCell id="teurzVv6Pnht3kjDeuW_-19" value="" style="edgeStyle=none;html=1;fontFamily=Times New Roman;fontSize=14;exitX=0.95;exitY=0.409;exitDx=0;exitDy=0;exitPerimeter=0;" edge="1" parent="c4bEmXTKjH63eX3M-lvr-17" source="teurzVv6Pnht3kjDeuW_-11" target="c4bEmXTKjH63eX3M-lvr-17">
                    <mxGeometry relative="1" as="geometry">
                        <mxPoint x="80" y="454" as="targetPoint"/>
                        <Array as="points">
                            <mxPoint x="80" y="440"/>
                            <mxPoint x="80" y="460"/>
                        </Array>
                    </mxGeometry>
                </mxCell>
                <mxCell id="c4bEmXTKjH63eX3M-lvr-23" value="Session" style="shape=umlLifeline;perimeter=lifelinePerimeter;whiteSpace=wrap;html=1;container=1;collapsible=0;recursiveResize=0;outlineConnect=0;labelBackgroundColor=default;labelBorderColor=none;fontFamily=Times New Roman;fontSize=14;" vertex="1" parent="c4bEmXTKjH63eX3M-lvr-1">
                    <mxGeometry x="880" y="40" width="120" height="560" as="geometry"/>
                </mxCell>
                <mxCell id="wRbz4YosDQ6MbueglRD1-3" value="" style="html=1;points=[];perimeter=orthogonalPerimeter;labelBackgroundColor=default;labelBorderColor=none;fontFamily=Times New Roman;fontSize=14;" vertex="1" parent="c4bEmXTKjH63eX3M-lvr-23">
                    <mxGeometry x="55" y="150" width="10" height="80" as="geometry"/>
                </mxCell>
                <mxCell id="5y4dJK8KaFOtyDJmOWnI-3" value="1. Chọn giỏ hàng" style="text;html=1;align=center;verticalAlign=middle;resizable=0;points=[];autosize=1;strokeColor=none;fillColor=none;fontSize=14;fontFamily=Times New Roman;" vertex="1" parent="c4bEmXTKjH63eX3M-lvr-1">
                    <mxGeometry x="210" y="135" width="120" height="30" as="geometry"/>
                </mxCell>
                <mxCell id="wRbz4YosDQ6MbueglRD1-0" value="" style="endArrow=open;endFill=1;endSize=12;html=1;fontFamily=Times New Roman;fontSize=14;exitX=1.15;exitY=0.272;exitDx=0;exitDy=0;exitPerimeter=0;" edge="1" parent="c4bEmXTKjH63eX3M-lvr-1" source="5y4dJK8KaFOtyDJmOWnI-2">
                    <mxGeometry width="160" relative="1" as="geometry">
                        <mxPoint x="390" y="190" as="sourcePoint"/>
                        <mxPoint x="560" y="190" as="targetPoint"/>
                    </mxGeometry>
                </mxCell>
                <mxCell id="wRbz4YosDQ6MbueglRD1-1" value="2. Lấy thông tin giỏ hàng" style="text;html=1;align=center;verticalAlign=middle;resizable=0;points=[];autosize=1;strokeColor=none;fillColor=none;fontSize=14;fontFamily=Times New Roman;" vertex="1" parent="c4bEmXTKjH63eX3M-lvr-1">
                    <mxGeometry x="380" y="165" width="170" height="30" as="geometry"/>
                </mxCell>
                <mxCell id="wRbz4YosDQ6MbueglRD1-4" value="" style="endArrow=open;endFill=1;endSize=12;html=1;fontFamily=Times New Roman;fontSize=14;" edge="1" parent="c4bEmXTKjH63eX3M-lvr-1" target="c4bEmXTKjH63eX3M-lvr-23">
                    <mxGeometry width="160" relative="1" as="geometry">
                        <mxPoint x="564" y="210" as="sourcePoint"/>
                        <mxPoint x="724" y="210" as="targetPoint"/>
                    </mxGeometry>
                </mxCell>
                <mxCell id="wRbz4YosDQ6MbueglRD1-6" value="3. Lấy thông tin giỏ hàng trong session" style="text;html=1;align=center;verticalAlign=middle;resizable=0;points=[];autosize=1;strokeColor=none;fillColor=none;fontSize=14;fontFamily=Times New Roman;" vertex="1" parent="c4bEmXTKjH63eX3M-lvr-1">
                    <mxGeometry x="597" y="185" width="240" height="30" as="geometry"/>
                </mxCell>
                <mxCell id="E2mXlvUbLNaD8GmQouR3-0" value="" style="endArrow=block;dashed=1;endFill=0;endSize=12;html=1;fontFamily=Times New Roman;fontSize=14;" edge="1" parent="c4bEmXTKjH63eX3M-lvr-1">
                    <mxGeometry width="160" relative="1" as="geometry">
                        <mxPoint x="935" y="270" as="sourcePoint"/>
                        <mxPoint x="745" y="270" as="targetPoint"/>
                    </mxGeometry>
                </mxCell>
                <mxCell id="E2mXlvUbLNaD8GmQouR3-1" value="4. Trả về thông tin giỏ hàng" style="text;html=1;align=center;verticalAlign=middle;resizable=0;points=[];autosize=1;strokeColor=none;fillColor=none;fontSize=14;fontFamily=Times New Roman;" vertex="1" parent="c4bEmXTKjH63eX3M-lvr-1">
                    <mxGeometry x="760" y="245" width="180" height="30" as="geometry"/>
                </mxCell>
                <mxCell id="teurzVv6Pnht3kjDeuW_-0" value="5. Trả về thông tin&lt;br&gt;&amp;nbsp;giỏ hàng" style="text;html=1;align=center;verticalAlign=middle;resizable=0;points=[];autosize=1;strokeColor=none;fillColor=none;fontSize=14;fontFamily=Times New Roman;" vertex="1" parent="c4bEmXTKjH63eX3M-lvr-1">
                    <mxGeometry x="580" y="245" width="130" height="50" as="geometry"/>
                </mxCell>
                <mxCell id="teurzVv6Pnht3kjDeuW_-1" value="" style="endArrow=block;dashed=1;endFill=0;endSize=12;html=1;fontFamily=Times New Roman;fontSize=14;exitX=0.15;exitY=0.842;exitDx=0;exitDy=0;exitPerimeter=0;" edge="1" parent="c4bEmXTKjH63eX3M-lvr-1" source="wRbz4YosDQ6MbueglRD1-8">
                    <mxGeometry width="160" relative="1" as="geometry">
                        <mxPoint x="705" y="290" as="sourcePoint"/>
                        <mxPoint x="565" y="290" as="targetPoint"/>
                    </mxGeometry>
                </mxCell>
                <mxCell id="teurzVv6Pnht3kjDeuW_-2" value="" style="endArrow=block;dashed=1;endFill=0;endSize=12;html=1;fontFamily=Times New Roman;fontSize=14;" edge="1" parent="c4bEmXTKjH63eX3M-lvr-1">
                    <mxGeometry width="160" relative="1" as="geometry">
                        <mxPoint x="550" y="300" as="sourcePoint"/>
                        <mxPoint x="390" y="300" as="targetPoint"/>
                    </mxGeometry>
                </mxCell>
                <mxCell id="teurzVv6Pnht3kjDeuW_-3" value="6. Trả về thông &lt;br&gt;tin giỏ hàng" style="text;html=1;align=center;verticalAlign=middle;resizable=0;points=[];autosize=1;strokeColor=none;fillColor=none;fontSize=14;fontFamily=Times New Roman;" vertex="1" parent="c4bEmXTKjH63eX3M-lvr-1">
                    <mxGeometry x="410" y="260" width="110" height="50" as="geometry"/>
                </mxCell>
                <mxCell id="teurzVv6Pnht3kjDeuW_-4" value="7. Chọn sản phẩm &lt;br&gt;cần cập nhập" style="text;html=1;align=center;verticalAlign=middle;resizable=0;points=[];autosize=1;strokeColor=none;fillColor=none;fontSize=14;fontFamily=Times New Roman;" vertex="1" parent="c4bEmXTKjH63eX3M-lvr-1">
                    <mxGeometry x="210" y="360" width="120" height="50" as="geometry"/>
                </mxCell>
                <mxCell id="teurzVv6Pnht3kjDeuW_-5" value="" style="endArrow=open;endFill=1;endSize=12;html=1;fontFamily=Times New Roman;fontSize=14;" edge="1" parent="c4bEmXTKjH63eX3M-lvr-1">
                    <mxGeometry width="160" relative="1" as="geometry">
                        <mxPoint x="180" y="400" as="sourcePoint"/>
                        <mxPoint x="379.5" y="400" as="targetPoint"/>
                    </mxGeometry>
                </mxCell>
                <mxCell id="teurzVv6Pnht3kjDeuW_-8" value="" style="endArrow=open;endFill=1;endSize=12;html=1;fontFamily=Times New Roman;fontSize=14;exitX=1.15;exitY=0.272;exitDx=0;exitDy=0;exitPerimeter=0;" edge="1" parent="c4bEmXTKjH63eX3M-lvr-1">
                    <mxGeometry width="160" relative="1" as="geometry">
                        <mxPoint x="385" y="440" as="sourcePoint"/>
                        <mxPoint x="558.5" y="441.03999999999996" as="targetPoint"/>
                    </mxGeometry>
                </mxCell>
                <mxCell id="teurzVv6Pnht3kjDeuW_-10" value="8. Cập nhập số lượng &lt;br&gt;sản phẩm" style="text;html=1;align=center;verticalAlign=middle;resizable=0;points=[];autosize=1;strokeColor=none;fillColor=none;fontSize=14;fontFamily=Times New Roman;" vertex="1" parent="c4bEmXTKjH63eX3M-lvr-1">
                    <mxGeometry x="395" y="400" width="140" height="50" as="geometry"/>
                </mxCell>
                <mxCell id="teurzVv6Pnht3kjDeuW_-12" value="" style="endArrow=open;endFill=1;endSize=12;html=1;fontFamily=Times New Roman;fontSize=14;" edge="1" parent="c4bEmXTKjH63eX3M-lvr-1" target="c4bEmXTKjH63eX3M-lvr-17">
                    <mxGeometry width="160" relative="1" as="geometry">
                        <mxPoint x="565" y="470" as="sourcePoint"/>
                        <mxPoint x="725" y="470" as="targetPoint"/>
                    </mxGeometry>
                </mxCell>
                <mxCell id="teurzVv6Pnht3kjDeuW_-13" value="9. Cập nhập số lượng &lt;br&gt;sản phẩm trong giỏ hàng" style="text;html=1;align=center;verticalAlign=middle;resizable=0;points=[];autosize=1;strokeColor=none;fillColor=none;fontSize=14;fontFamily=Times New Roman;" vertex="1" parent="c4bEmXTKjH63eX3M-lvr-1">
                    <mxGeometry x="565" y="430" width="160" height="50" as="geometry"/>
                </mxCell>
                <mxCell id="teurzVv6Pnht3kjDeuW_-20" value="" style="endArrow=block;dashed=1;endFill=0;endSize=12;html=1;fontFamily=Times New Roman;fontSize=14;exitX=0.15;exitY=0.842;exitDx=0;exitDy=0;exitPerimeter=0;" edge="1" parent="c4bEmXTKjH63eX3M-lvr-1">
                    <mxGeometry width="160" relative="1" as="geometry">
                        <mxPoint x="735.75" y="540.52" as="sourcePoint"/>
                        <mxPoint x="564.25" y="540" as="targetPoint"/>
                    </mxGeometry>
                </mxCell>
                <mxCell id="teurzVv6Pnht3kjDeuW_-21" value="" style="endArrow=block;dashed=1;endFill=0;endSize=12;html=1;fontFamily=Times New Roman;fontSize=14;" edge="1" parent="c4bEmXTKjH63eX3M-lvr-1" target="teurzVv6Pnht3kjDeuW_-6">
                    <mxGeometry width="160" relative="1" as="geometry">
                        <mxPoint x="555" y="570" as="sourcePoint"/>
                        <mxPoint x="390" y="570" as="targetPoint"/>
                    </mxGeometry>
                </mxCell>
                <mxCell id="PpuqvElw3d8eUaxcbdLw-0" value="10. Trả về giỏ hàng&amp;nbsp;" style="text;html=1;align=center;verticalAlign=middle;resizable=0;points=[];autosize=1;strokeColor=none;fillColor=none;fontSize=14;fontFamily=Times New Roman;" vertex="1" parent="c4bEmXTKjH63eX3M-lvr-1">
                    <mxGeometry x="585" y="515" width="140" height="30" as="geometry"/>
                </mxCell>
                <mxCell id="PpuqvElw3d8eUaxcbdLw-1" value="11. Trả về giỏ hàng&amp;nbsp;" style="text;html=1;align=center;verticalAlign=middle;resizable=0;points=[];autosize=1;strokeColor=none;fillColor=none;fontSize=14;fontFamily=Times New Roman;" vertex="1" parent="c4bEmXTKjH63eX3M-lvr-1">
                    <mxGeometry x="408" y="546" width="130" height="30" as="geometry"/>
                </mxCell>
                <mxCell id="CWgkb4QMGR2-uE63qvx5-0" value="" style="endArrow=block;dashed=1;endFill=0;endSize=12;html=1;fontFamily=Times New Roman;fontSize=14;" edge="1" parent="c4bEmXTKjH63eX3M-lvr-1" target="c4bEmXTKjH63eX3M-lvr-5">
                    <mxGeometry width="160" relative="1" as="geometry">
                        <mxPoint x="380" y="590" as="sourcePoint"/>
                        <mxPoint x="210" y="590" as="targetPoint"/>
                    </mxGeometry>
                </mxCell>
                <mxCell id="CWgkb4QMGR2-uE63qvx5-2" value="12. Hiển thị" style="text;html=1;align=center;verticalAlign=middle;resizable=0;points=[];autosize=1;strokeColor=none;fillColor=none;fontSize=14;fontFamily=Times New Roman;" vertex="1" parent="c4bEmXTKjH63eX3M-lvr-1">
                    <mxGeometry x="212" y="565" width="90" height="30" as="geometry"/>
                </mxCell>
            </root>
        </mxGraphModel>
    </diagram>
    <diagram name="Biểu đồ tuần tự checkout" id="MkVme3hXapg_rBl6Hs2W">
        <mxGraphModel dx="2012" dy="1061" grid="1" gridSize="10" guides="1" tooltips="1" connect="1" arrows="1" fold="1" page="1" pageScale="1" pageWidth="1169" pageHeight="827" math="0" shadow="0">
            <root>
                <mxCell id="8DMcVyB6DhTLbxl9g71H-0"/>
                <mxCell id="8DMcVyB6DhTLbxl9g71H-1" parent="8DMcVyB6DhTLbxl9g71H-0"/>
                <mxCell id="8DMcVyB6DhTLbxl9g71H-2" value="Cart Page" style="shape=umlLifeline;participant=umlBoundary;perimeter=lifelinePerimeter;container=1;collapsible=0;recursiveResize=0;verticalAlign=top;spacingTop=36;outlineConnect=0;fontFamily=Times New Roman;fontSize=14;fontStyle=0;labelBackgroundColor=default;labelBorderColor=none;whiteSpace=wrap;html=1;" vertex="1" parent="8DMcVyB6DhTLbxl9g71H-1">
                    <mxGeometry x="340" y="40" width="80" height="1000" as="geometry"/>
                </mxCell>
                <mxCell id="8DMcVyB6DhTLbxl9g71H-3" value="" style="html=1;points=[];perimeter=orthogonalPerimeter;labelBackgroundColor=default;labelBorderColor=none;fontFamily=Times New Roman;fontSize=14;" vertex="1" parent="8DMcVyB6DhTLbxl9g71H-2">
                    <mxGeometry x="35" y="100" width="10" height="180" as="geometry"/>
                </mxCell>
                <mxCell id="8DMcVyB6DhTLbxl9g71H-4" value="" style="html=1;points=[];perimeter=orthogonalPerimeter;labelBackgroundColor=default;labelBorderColor=none;fontFamily=Times New Roman;fontSize=14;" vertex="1" parent="8DMcVyB6DhTLbxl9g71H-2">
                    <mxGeometry x="35" y="340" width="10" height="220" as="geometry"/>
                </mxCell>
                <mxCell id="ajkmGYzgHS705_fN1HB0-2" value="" style="html=1;points=[];perimeter=orthogonalPerimeter;labelBackgroundColor=default;labelBorderColor=none;fontFamily=Times New Roman;fontSize=14;" vertex="1" parent="8DMcVyB6DhTLbxl9g71H-2">
                    <mxGeometry x="35" y="620" width="10" height="370" as="geometry"/>
                </mxCell>
                <mxCell id="8DMcVyB6DhTLbxl9g71H-5" value="User" style="shape=umlLifeline;participant=umlActor;perimeter=lifelinePerimeter;whiteSpace=wrap;html=1;container=1;collapsible=0;recursiveResize=0;verticalAlign=top;spacingTop=36;outlineConnect=0;labelBorderColor=none;fontFamily=Times New Roman;fontSize=14;fontStyle=0;labelBackgroundColor=default;" vertex="1" parent="8DMcVyB6DhTLbxl9g71H-1">
                    <mxGeometry x="170" y="40" width="20" height="1000" as="geometry"/>
                </mxCell>
                <mxCell id="8DMcVyB6DhTLbxl9g71H-6" value="" style="endArrow=open;endFill=1;endSize=12;html=1;fontFamily=Times New Roman;fontSize=14;" edge="1" parent="8DMcVyB6DhTLbxl9g71H-5" target="8DMcVyB6DhTLbxl9g71H-2">
                    <mxGeometry width="160" relative="1" as="geometry">
                        <mxPoint x="10" y="120" as="sourcePoint"/>
                        <mxPoint x="170" y="120" as="targetPoint"/>
                    </mxGeometry>
                </mxCell>
                <mxCell id="iWi3dzPBrHiadfpIQgtz-7" value="" style="html=1;points=[];perimeter=orthogonalPerimeter;labelBackgroundColor=default;labelBorderColor=none;fontFamily=Times New Roman;fontSize=14;" vertex="1" parent="8DMcVyB6DhTLbxl9g71H-5">
                    <mxGeometry x="5" y="100" width="10" height="900" as="geometry"/>
                </mxCell>
                <mxCell id="8DMcVyB6DhTLbxl9g71H-7" value="Cart Controller" style="shape=umlLifeline;participant=umlControl;perimeter=lifelinePerimeter;whiteSpace=wrap;html=1;container=1;collapsible=0;recursiveResize=0;verticalAlign=top;spacingTop=36;outlineConnect=0;labelBackgroundColor=default;labelBorderColor=none;fontFamily=Times New Roman;fontSize=14;" vertex="1" parent="8DMcVyB6DhTLbxl9g71H-1">
                    <mxGeometry x="540" y="40" width="40" height="1000" as="geometry"/>
                </mxCell>
                <mxCell id="8DMcVyB6DhTLbxl9g71H-8" value="" style="html=1;points=[];perimeter=orthogonalPerimeter;labelBackgroundColor=default;labelBorderColor=none;fontFamily=Times New Roman;fontSize=14;" vertex="1" parent="8DMcVyB6DhTLbxl9g71H-7">
                    <mxGeometry x="15" y="130" width="10" height="160" as="geometry"/>
                </mxCell>
                <mxCell id="8DMcVyB6DhTLbxl9g71H-9" value="" style="html=1;points=[];perimeter=orthogonalPerimeter;labelBackgroundColor=default;labelBorderColor=none;fontFamily=Times New Roman;fontSize=14;" vertex="1" parent="8DMcVyB6DhTLbxl9g71H-7">
                    <mxGeometry x="15" y="370" width="10" height="160" as="geometry"/>
                </mxCell>
                <mxCell id="dVZFVrxlQPG-xWaoga05-0" value="" style="html=1;points=[];perimeter=orthogonalPerimeter;labelBackgroundColor=default;labelBorderColor=none;fontFamily=Times New Roman;fontSize=14;" vertex="1" parent="8DMcVyB6DhTLbxl9g71H-7">
                    <mxGeometry x="15" y="640" width="10" height="310" as="geometry"/>
                </mxCell>
                <mxCell id="8DMcVyB6DhTLbxl9g71H-10" value="Cart Entity" style="shape=umlLifeline;participant=umlEntity;perimeter=lifelinePerimeter;whiteSpace=wrap;html=1;container=1;collapsible=0;recursiveResize=0;verticalAlign=top;spacingTop=36;outlineConnect=0;labelBackgroundColor=default;labelBorderColor=none;fontFamily=Times New Roman;fontSize=14;" vertex="1" parent="8DMcVyB6DhTLbxl9g71H-1">
                    <mxGeometry x="720" y="40" width="40" height="1000" as="geometry"/>
                </mxCell>
                <mxCell id="8DMcVyB6DhTLbxl9g71H-11" value="" style="html=1;points=[];perimeter=orthogonalPerimeter;labelBackgroundColor=default;labelBorderColor=none;fontFamily=Times New Roman;fontSize=14;" vertex="1" parent="8DMcVyB6DhTLbxl9g71H-10">
                    <mxGeometry x="15" y="200" width="10" height="60" as="geometry"/>
                </mxCell>
                <mxCell id="8DMcVyB6DhTLbxl9g71H-12" value="" style="html=1;points=[];perimeter=orthogonalPerimeter;labelBackgroundColor=default;labelBorderColor=none;fontFamily=Times New Roman;fontSize=14;" vertex="1" parent="8DMcVyB6DhTLbxl9g71H-10">
                    <mxGeometry x="15" y="374" width="10" height="160" as="geometry"/>
                </mxCell>
                <mxCell id="8DMcVyB6DhTLbxl9g71H-13" value="" style="edgeStyle=none;html=1;fontFamily=Times New Roman;fontSize=14;exitX=0.95;exitY=0.409;exitDx=0;exitDy=0;exitPerimeter=0;" edge="1" parent="8DMcVyB6DhTLbxl9g71H-10" source="8DMcVyB6DhTLbxl9g71H-12" target="8DMcVyB6DhTLbxl9g71H-10">
                    <mxGeometry relative="1" as="geometry">
                        <mxPoint x="80" y="454" as="targetPoint"/>
                        <Array as="points">
                            <mxPoint x="80" y="440"/>
                            <mxPoint x="80" y="460"/>
                        </Array>
                    </mxGeometry>
                </mxCell>
                <mxCell id="dVZFVrxlQPG-xWaoga05-11" value="" style="html=1;points=[];perimeter=orthogonalPerimeter;labelBackgroundColor=default;labelBorderColor=none;fontFamily=Times New Roman;fontSize=14;" vertex="1" parent="8DMcVyB6DhTLbxl9g71H-10">
                    <mxGeometry x="15" y="745" width="10" height="115" as="geometry"/>
                </mxCell>
                <mxCell id="8DMcVyB6DhTLbxl9g71H-14" value="Session" style="shape=umlLifeline;perimeter=lifelinePerimeter;whiteSpace=wrap;html=1;container=1;collapsible=0;recursiveResize=0;outlineConnect=0;labelBackgroundColor=default;labelBorderColor=none;fontFamily=Times New Roman;fontSize=14;" vertex="1" parent="8DMcVyB6DhTLbxl9g71H-1">
                    <mxGeometry x="1040" y="40" width="120" height="1000" as="geometry"/>
                </mxCell>
                <mxCell id="8DMcVyB6DhTLbxl9g71H-15" value="" style="html=1;points=[];perimeter=orthogonalPerimeter;labelBackgroundColor=default;labelBorderColor=none;fontFamily=Times New Roman;fontSize=14;" vertex="1" parent="8DMcVyB6DhTLbxl9g71H-14">
                    <mxGeometry x="55" y="150" width="10" height="80" as="geometry"/>
                </mxCell>
                <mxCell id="8DMcVyB6DhTLbxl9g71H-16" value="1. Chọn giỏ hàng" style="text;html=1;align=center;verticalAlign=middle;resizable=0;points=[];autosize=1;strokeColor=none;fillColor=none;fontSize=14;fontFamily=Times New Roman;" vertex="1" parent="8DMcVyB6DhTLbxl9g71H-1">
                    <mxGeometry x="210" y="135" width="120" height="30" as="geometry"/>
                </mxCell>
                <mxCell id="8DMcVyB6DhTLbxl9g71H-17" value="" style="endArrow=open;endFill=1;endSize=12;html=1;fontFamily=Times New Roman;fontSize=14;exitX=1.15;exitY=0.272;exitDx=0;exitDy=0;exitPerimeter=0;" edge="1" parent="8DMcVyB6DhTLbxl9g71H-1" source="8DMcVyB6DhTLbxl9g71H-3">
                    <mxGeometry width="160" relative="1" as="geometry">
                        <mxPoint x="390" y="190" as="sourcePoint"/>
                        <mxPoint x="560" y="190" as="targetPoint"/>
                    </mxGeometry>
                </mxCell>
                <mxCell id="8DMcVyB6DhTLbxl9g71H-18" value="2. Lấy thông tin giỏ hàng" style="text;html=1;align=center;verticalAlign=middle;resizable=0;points=[];autosize=1;strokeColor=none;fillColor=none;fontSize=14;fontFamily=Times New Roman;" vertex="1" parent="8DMcVyB6DhTLbxl9g71H-1">
                    <mxGeometry x="380" y="165" width="170" height="30" as="geometry"/>
                </mxCell>
                <mxCell id="8DMcVyB6DhTLbxl9g71H-19" value="" style="endArrow=open;endFill=1;endSize=12;html=1;fontFamily=Times New Roman;fontSize=14;" edge="1" parent="8DMcVyB6DhTLbxl9g71H-1" target="8DMcVyB6DhTLbxl9g71H-14">
                    <mxGeometry width="160" relative="1" as="geometry">
                        <mxPoint x="564" y="210" as="sourcePoint"/>
                        <mxPoint x="724" y="210" as="targetPoint"/>
                    </mxGeometry>
                </mxCell>
                <mxCell id="8DMcVyB6DhTLbxl9g71H-20" value="3. Lấy thông tin giỏ hàng trong session" style="text;html=1;align=center;verticalAlign=middle;resizable=0;points=[];autosize=1;strokeColor=none;fillColor=none;fontSize=14;fontFamily=Times New Roman;" vertex="1" parent="8DMcVyB6DhTLbxl9g71H-1">
                    <mxGeometry x="597" y="185" width="240" height="30" as="geometry"/>
                </mxCell>
                <mxCell id="8DMcVyB6DhTLbxl9g71H-21" value="" style="endArrow=block;dashed=1;endFill=0;endSize=12;html=1;fontFamily=Times New Roman;fontSize=14;" edge="1" parent="8DMcVyB6DhTLbxl9g71H-1" source="8DMcVyB6DhTLbxl9g71H-14">
                    <mxGeometry width="160" relative="1" as="geometry">
                        <mxPoint x="935" y="270" as="sourcePoint"/>
                        <mxPoint x="745" y="270" as="targetPoint"/>
                    </mxGeometry>
                </mxCell>
                <mxCell id="8DMcVyB6DhTLbxl9g71H-22" value="4. Trả về thông tin giỏ hàng" style="text;html=1;align=center;verticalAlign=middle;resizable=0;points=[];autosize=1;strokeColor=none;fillColor=none;fontSize=14;fontFamily=Times New Roman;" vertex="1" parent="8DMcVyB6DhTLbxl9g71H-1">
                    <mxGeometry x="760" y="245" width="180" height="30" as="geometry"/>
                </mxCell>
                <mxCell id="8DMcVyB6DhTLbxl9g71H-23" value="5. Trả về thông tin&lt;br&gt;&amp;nbsp;giỏ hàng" style="text;html=1;align=center;verticalAlign=middle;resizable=0;points=[];autosize=1;strokeColor=none;fillColor=none;fontSize=14;fontFamily=Times New Roman;" vertex="1" parent="8DMcVyB6DhTLbxl9g71H-1">
                    <mxGeometry x="580" y="245" width="130" height="50" as="geometry"/>
                </mxCell>
                <mxCell id="8DMcVyB6DhTLbxl9g71H-24" value="" style="endArrow=block;dashed=1;endFill=0;endSize=12;html=1;fontFamily=Times New Roman;fontSize=14;exitX=0.15;exitY=0.842;exitDx=0;exitDy=0;exitPerimeter=0;" edge="1" parent="8DMcVyB6DhTLbxl9g71H-1" source="8DMcVyB6DhTLbxl9g71H-11">
                    <mxGeometry width="160" relative="1" as="geometry">
                        <mxPoint x="705" y="290" as="sourcePoint"/>
                        <mxPoint x="565" y="290" as="targetPoint"/>
                    </mxGeometry>
                </mxCell>
                <mxCell id="8DMcVyB6DhTLbxl9g71H-25" value="" style="endArrow=block;dashed=1;endFill=0;endSize=12;html=1;fontFamily=Times New Roman;fontSize=14;" edge="1" parent="8DMcVyB6DhTLbxl9g71H-1">
                    <mxGeometry width="160" relative="1" as="geometry">
                        <mxPoint x="550" y="300" as="sourcePoint"/>
                        <mxPoint x="390" y="300" as="targetPoint"/>
                    </mxGeometry>
                </mxCell>
                <mxCell id="8DMcVyB6DhTLbxl9g71H-26" value="6. Trả về thông &lt;br&gt;tin giỏ hàng" style="text;html=1;align=center;verticalAlign=middle;resizable=0;points=[];autosize=1;strokeColor=none;fillColor=none;fontSize=14;fontFamily=Times New Roman;" vertex="1" parent="8DMcVyB6DhTLbxl9g71H-1">
                    <mxGeometry x="410" y="260" width="110" height="50" as="geometry"/>
                </mxCell>
                <mxCell id="8DMcVyB6DhTLbxl9g71H-27" value="8. Chọn sản phẩm &lt;br&gt;cần cập nhập" style="text;html=1;align=center;verticalAlign=middle;resizable=0;points=[];autosize=1;strokeColor=none;fillColor=none;fontSize=14;fontFamily=Times New Roman;" vertex="1" parent="8DMcVyB6DhTLbxl9g71H-1">
                    <mxGeometry x="210" y="360" width="120" height="50" as="geometry"/>
                </mxCell>
                <mxCell id="8DMcVyB6DhTLbxl9g71H-28" value="" style="endArrow=open;endFill=1;endSize=12;html=1;fontFamily=Times New Roman;fontSize=14;" edge="1" parent="8DMcVyB6DhTLbxl9g71H-1">
                    <mxGeometry width="160" relative="1" as="geometry">
                        <mxPoint x="180" y="400" as="sourcePoint"/>
                        <mxPoint x="379.5" y="400" as="targetPoint"/>
                    </mxGeometry>
                </mxCell>
                <mxCell id="8DMcVyB6DhTLbxl9g71H-29" value="" style="endArrow=open;endFill=1;endSize=12;html=1;fontFamily=Times New Roman;fontSize=14;exitX=1.15;exitY=0.272;exitDx=0;exitDy=0;exitPerimeter=0;" edge="1" parent="8DMcVyB6DhTLbxl9g71H-1">
                    <mxGeometry width="160" relative="1" as="geometry">
                        <mxPoint x="385" y="440" as="sourcePoint"/>
                        <mxPoint x="558.5" y="441.03999999999996" as="targetPoint"/>
                    </mxGeometry>
                </mxCell>
                <mxCell id="8DMcVyB6DhTLbxl9g71H-30" value="9. Cập nhập số lượng &lt;br&gt;sản phẩm" style="text;html=1;align=center;verticalAlign=middle;resizable=0;points=[];autosize=1;strokeColor=none;fillColor=none;fontSize=14;fontFamily=Times New Roman;" vertex="1" parent="8DMcVyB6DhTLbxl9g71H-1">
                    <mxGeometry x="395" y="400" width="140" height="50" as="geometry"/>
                </mxCell>
                <mxCell id="8DMcVyB6DhTLbxl9g71H-31" value="" style="endArrow=open;endFill=1;endSize=12;html=1;fontFamily=Times New Roman;fontSize=14;" edge="1" parent="8DMcVyB6DhTLbxl9g71H-1" target="8DMcVyB6DhTLbxl9g71H-10">
                    <mxGeometry width="160" relative="1" as="geometry">
                        <mxPoint x="565" y="470" as="sourcePoint"/>
                        <mxPoint x="725" y="470" as="targetPoint"/>
                    </mxGeometry>
                </mxCell>
                <mxCell id="8DMcVyB6DhTLbxl9g71H-32" value="10. Cập nhập số lượng &lt;br&gt;sản phẩm trong giỏ hàng" style="text;html=1;align=center;verticalAlign=middle;resizable=0;points=[];autosize=1;strokeColor=none;fillColor=none;fontSize=14;fontFamily=Times New Roman;" vertex="1" parent="8DMcVyB6DhTLbxl9g71H-1">
                    <mxGeometry x="565" y="430" width="160" height="50" as="geometry"/>
                </mxCell>
                <mxCell id="8DMcVyB6DhTLbxl9g71H-33" value="" style="endArrow=block;dashed=1;endFill=0;endSize=12;html=1;fontFamily=Times New Roman;fontSize=14;exitX=0.15;exitY=0.842;exitDx=0;exitDy=0;exitPerimeter=0;" edge="1" parent="8DMcVyB6DhTLbxl9g71H-1">
                    <mxGeometry width="160" relative="1" as="geometry">
                        <mxPoint x="735.75" y="540.52" as="sourcePoint"/>
                        <mxPoint x="564.25" y="540" as="targetPoint"/>
                    </mxGeometry>
                </mxCell>
                <mxCell id="8DMcVyB6DhTLbxl9g71H-34" value="" style="endArrow=block;dashed=1;endFill=0;endSize=12;html=1;fontFamily=Times New Roman;fontSize=14;" edge="1" parent="8DMcVyB6DhTLbxl9g71H-1" target="8DMcVyB6DhTLbxl9g71H-4">
                    <mxGeometry width="160" relative="1" as="geometry">
                        <mxPoint x="555" y="570" as="sourcePoint"/>
                        <mxPoint x="390" y="570" as="targetPoint"/>
                    </mxGeometry>
                </mxCell>
                <mxCell id="8DMcVyB6DhTLbxl9g71H-35" value="11. Trả về giỏ hàng&amp;nbsp;" style="text;html=1;align=center;verticalAlign=middle;resizable=0;points=[];autosize=1;strokeColor=none;fillColor=none;fontSize=14;fontFamily=Times New Roman;" vertex="1" parent="8DMcVyB6DhTLbxl9g71H-1">
                    <mxGeometry x="590" y="515" width="130" height="30" as="geometry"/>
                </mxCell>
                <mxCell id="8DMcVyB6DhTLbxl9g71H-36" value="12. Trả về giỏ hàng&amp;nbsp;" style="text;html=1;align=center;verticalAlign=middle;resizable=0;points=[];autosize=1;strokeColor=none;fillColor=none;fontSize=14;fontFamily=Times New Roman;" vertex="1" parent="8DMcVyB6DhTLbxl9g71H-1">
                    <mxGeometry x="403" y="546" width="140" height="30" as="geometry"/>
                </mxCell>
                <mxCell id="p81PdhDrnJijIYdU2zfm-0" value="Database" style="shape=umlLifeline;perimeter=lifelinePerimeter;whiteSpace=wrap;html=1;container=1;collapsible=0;recursiveResize=0;outlineConnect=0;labelBackgroundColor=default;labelBorderColor=none;fontFamily=Times New Roman;fontSize=14;" vertex="1" parent="8DMcVyB6DhTLbxl9g71H-1">
                    <mxGeometry x="1280" y="40" width="100" height="1000" as="geometry"/>
                </mxCell>
                <mxCell id="dVZFVrxlQPG-xWaoga05-3" value="" style="html=1;points=[];perimeter=orthogonalPerimeter;labelBackgroundColor=default;labelBorderColor=none;fontFamily=Times New Roman;fontSize=14;" vertex="1" parent="p81PdhDrnJijIYdU2zfm-0">
                    <mxGeometry x="45" y="684" width="10" height="76" as="geometry"/>
                </mxCell>
                <mxCell id="dVZFVrxlQPG-xWaoga05-19" value="" style="html=1;points=[];perimeter=orthogonalPerimeter;labelBackgroundColor=default;labelBorderColor=none;fontFamily=Times New Roman;fontSize=14;" vertex="1" parent="p81PdhDrnJijIYdU2zfm-0">
                    <mxGeometry x="45" y="829" width="10" height="91" as="geometry"/>
                </mxCell>
                <mxCell id="ajkmGYzgHS705_fN1HB0-0" value="Bill Entity" style="shape=umlLifeline;participant=umlEntity;perimeter=lifelinePerimeter;whiteSpace=wrap;html=1;container=1;collapsible=0;recursiveResize=0;verticalAlign=top;spacingTop=36;outlineConnect=0;labelBackgroundColor=default;labelBorderColor=none;fontFamily=Times New Roman;fontSize=14;" vertex="1" parent="8DMcVyB6DhTLbxl9g71H-1">
                    <mxGeometry x="880" y="40" width="40" height="1000" as="geometry"/>
                </mxCell>
                <mxCell id="dVZFVrxlQPG-xWaoga05-14" value="" style="html=1;points=[];perimeter=orthogonalPerimeter;labelBackgroundColor=default;labelBorderColor=none;fontFamily=Times New Roman;fontSize=14;" vertex="1" parent="ajkmGYzgHS705_fN1HB0-0">
                    <mxGeometry x="16" y="818" width="10" height="68" as="geometry"/>
                </mxCell>
                <mxCell id="ajkmGYzgHS705_fN1HB0-1" value="" style="endArrow=open;endFill=1;endSize=12;html=1;fontFamily=Times New Roman;fontSize=14;" edge="1" parent="8DMcVyB6DhTLbxl9g71H-1">
                    <mxGeometry width="160" relative="1" as="geometry">
                        <mxPoint x="180.5" y="680" as="sourcePoint"/>
                        <mxPoint x="380" y="680" as="targetPoint"/>
                    </mxGeometry>
                </mxCell>
                <mxCell id="ajkmGYzgHS705_fN1HB0-3" value="14. Mua hàng" style="text;html=1;align=center;verticalAlign=middle;resizable=0;points=[];autosize=1;strokeColor=none;fillColor=none;fontSize=14;fontFamily=Times New Roman;" vertex="1" parent="8DMcVyB6DhTLbxl9g71H-1">
                    <mxGeometry x="230" y="655" width="100" height="30" as="geometry"/>
                </mxCell>
                <mxCell id="dVZFVrxlQPG-xWaoga05-1" value="" style="endArrow=open;endFill=1;endSize=12;html=1;fontFamily=Times New Roman;fontSize=14;exitX=1.15;exitY=0.272;exitDx=0;exitDy=0;exitPerimeter=0;" edge="1" parent="8DMcVyB6DhTLbxl9g71H-1">
                    <mxGeometry width="160" relative="1" as="geometry">
                        <mxPoint x="386.25" y="720" as="sourcePoint"/>
                        <mxPoint x="560" y="720" as="targetPoint"/>
                    </mxGeometry>
                </mxCell>
                <mxCell id="dVZFVrxlQPG-xWaoga05-2" value="15. Gửi yêu cầu mua hàng" style="text;html=1;align=center;verticalAlign=middle;resizable=0;points=[];autosize=1;strokeColor=none;fillColor=none;fontSize=14;fontFamily=Times New Roman;" vertex="1" parent="8DMcVyB6DhTLbxl9g71H-1">
                    <mxGeometry x="380" y="695" width="170" height="30" as="geometry"/>
                </mxCell>
                <mxCell id="dVZFVrxlQPG-xWaoga05-5" style="edgeStyle=none;html=1;fontFamily=Times New Roman;fontSize=14;" edge="1" parent="8DMcVyB6DhTLbxl9g71H-1">
                    <mxGeometry relative="1" as="geometry">
                        <mxPoint x="565" y="740" as="sourcePoint"/>
                        <mxPoint x="1329.5" y="740" as="targetPoint"/>
                    </mxGeometry>
                </mxCell>
                <mxCell id="dVZFVrxlQPG-xWaoga05-9" value="16. Kiểm tra số lượng sản phẩm trong giỏ hàng với số lượng sản phẩm trong DB" style="text;html=1;align=center;verticalAlign=middle;resizable=0;points=[];autosize=1;strokeColor=none;fillColor=none;fontSize=14;fontFamily=Times New Roman;" vertex="1" parent="8DMcVyB6DhTLbxl9g71H-1">
                    <mxGeometry x="761" y="715" width="480" height="30" as="geometry"/>
                </mxCell>
                <mxCell id="dVZFVrxlQPG-xWaoga05-10" value="" style="endArrow=block;dashed=1;endFill=0;endSize=12;html=1;fontFamily=Times New Roman;fontSize=14;" edge="1" parent="8DMcVyB6DhTLbxl9g71H-1">
                    <mxGeometry width="160" relative="1" as="geometry">
                        <mxPoint x="1324.5" y="799" as="sourcePoint"/>
                        <mxPoint x="739.4473684210525" y="799" as="targetPoint"/>
                    </mxGeometry>
                </mxCell>
                <mxCell id="dVZFVrxlQPG-xWaoga05-13" value="17. Trả về thông tin giỏ hàng&lt;br&gt;&amp;nbsp;hợp lệ" style="text;html=1;align=center;verticalAlign=middle;resizable=0;points=[];autosize=1;strokeColor=none;fillColor=none;fontSize=14;fontFamily=Times New Roman;" vertex="1" parent="8DMcVyB6DhTLbxl9g71H-1">
                    <mxGeometry x="906" y="756" width="190" height="50" as="geometry"/>
                </mxCell>
                <mxCell id="dVZFVrxlQPG-xWaoga05-15" style="edgeStyle=none;html=1;fontFamily=Times New Roman;fontSize=14;" edge="1" parent="8DMcVyB6DhTLbxl9g71H-1">
                    <mxGeometry relative="1" as="geometry">
                        <mxPoint x="745" y="869.5" as="sourcePoint"/>
                        <mxPoint x="899.5" y="869.5" as="targetPoint"/>
                    </mxGeometry>
                </mxCell>
                <mxCell id="dVZFVrxlQPG-xWaoga05-17" value="18. Thêm thông tin giỏ &lt;br&gt;hàng vào hoá đơn" style="text;html=1;align=center;verticalAlign=middle;resizable=0;points=[];autosize=1;strokeColor=none;fillColor=none;fontSize=14;fontFamily=Times New Roman;" vertex="1" parent="8DMcVyB6DhTLbxl9g71H-1">
                    <mxGeometry x="745" y="824" width="150" height="50" as="geometry"/>
                </mxCell>
                <mxCell id="iWi3dzPBrHiadfpIQgtz-0" style="edgeStyle=none;html=1;fontFamily=Times New Roman;fontSize=14;" edge="1" parent="8DMcVyB6DhTLbxl9g71H-1">
                    <mxGeometry relative="1" as="geometry">
                        <mxPoint x="906" y="890" as="sourcePoint"/>
                        <mxPoint x="1329.5" y="890" as="targetPoint"/>
                    </mxGeometry>
                </mxCell>
                <mxCell id="iWi3dzPBrHiadfpIQgtz-1" value="19. Lưu giỏ hàng vào DB" style="text;html=1;align=center;verticalAlign=middle;resizable=0;points=[];autosize=1;strokeColor=none;fillColor=none;fontSize=14;fontFamily=Times New Roman;" vertex="1" parent="8DMcVyB6DhTLbxl9g71H-1">
                    <mxGeometry x="989" y="865" width="170" height="30" as="geometry"/>
                </mxCell>
                <mxCell id="iWi3dzPBrHiadfpIQgtz-3" value="" style="endArrow=block;dashed=1;endFill=0;endSize=12;html=1;fontFamily=Times New Roman;fontSize=14;" edge="1" parent="8DMcVyB6DhTLbxl9g71H-1" target="8DMcVyB6DhTLbxl9g71H-7">
                    <mxGeometry width="160" relative="1" as="geometry">
                        <mxPoint x="1325.05" y="960" as="sourcePoint"/>
                        <mxPoint x="739.9973684210524" y="960" as="targetPoint"/>
                    </mxGeometry>
                </mxCell>
                <mxCell id="iWi3dzPBrHiadfpIQgtz-4" value="20. Trả về đơn hàng" style="text;html=1;align=center;verticalAlign=middle;resizable=0;points=[];autosize=1;strokeColor=none;fillColor=none;fontSize=14;fontFamily=Times New Roman;" vertex="1" parent="8DMcVyB6DhTLbxl9g71H-1">
                    <mxGeometry x="922" y="935" width="140" height="30" as="geometry"/>
                </mxCell>
                <mxCell id="iWi3dzPBrHiadfpIQgtz-5" value="" style="endArrow=block;dashed=1;endFill=0;endSize=12;html=1;fontFamily=Times New Roman;fontSize=14;" edge="1" parent="8DMcVyB6DhTLbxl9g71H-1">
                    <mxGeometry width="160" relative="1" as="geometry">
                        <mxPoint x="558" y="990" as="sourcePoint"/>
                        <mxPoint x="388" y="990" as="targetPoint"/>
                    </mxGeometry>
                </mxCell>
                <mxCell id="iWi3dzPBrHiadfpIQgtz-6" value="21. Trả về đơn hàng" style="text;html=1;align=center;verticalAlign=middle;resizable=0;points=[];autosize=1;strokeColor=none;fillColor=none;fontSize=14;fontFamily=Times New Roman;" vertex="1" parent="8DMcVyB6DhTLbxl9g71H-1">
                    <mxGeometry x="408" y="965" width="140" height="30" as="geometry"/>
                </mxCell>
                <mxCell id="iWi3dzPBrHiadfpIQgtz-8" value="22. Hiển thị" style="text;html=1;align=center;verticalAlign=middle;resizable=0;points=[];autosize=1;strokeColor=none;fillColor=none;fontSize=14;fontFamily=Times New Roman;" vertex="1" parent="8DMcVyB6DhTLbxl9g71H-1">
                    <mxGeometry x="242" y="994" width="90" height="30" as="geometry"/>
                </mxCell>
                <mxCell id="iWi3dzPBrHiadfpIQgtz-9" value="" style="endArrow=block;dashed=1;endFill=0;endSize=12;html=1;fontFamily=Times New Roman;fontSize=14;" edge="1" parent="8DMcVyB6DhTLbxl9g71H-1" target="8DMcVyB6DhTLbxl9g71H-5">
                    <mxGeometry width="160" relative="1" as="geometry">
                        <mxPoint x="375" y="1020" as="sourcePoint"/>
                        <mxPoint x="205" y="1020" as="targetPoint"/>
                    </mxGeometry>
                </mxCell>
                <mxCell id="iWi3dzPBrHiadfpIQgtz-10" value="7. Hiển thị" style="text;html=1;align=center;verticalAlign=middle;resizable=0;points=[];autosize=1;strokeColor=none;fillColor=none;fontSize=14;fontFamily=Times New Roman;" vertex="1" parent="8DMcVyB6DhTLbxl9g71H-1">
                    <mxGeometry x="240" y="283" width="80" height="30" as="geometry"/>
                </mxCell>
                <mxCell id="iWi3dzPBrHiadfpIQgtz-11" value="" style="endArrow=block;dashed=1;endFill=0;endSize=12;html=1;fontFamily=Times New Roman;fontSize=14;" edge="1" parent="8DMcVyB6DhTLbxl9g71H-1">
                    <mxGeometry width="160" relative="1" as="geometry">
                        <mxPoint x="377.84" y="310" as="sourcePoint"/>
                        <mxPoint x="182.16352941176464" y="310" as="targetPoint"/>
                    </mxGeometry>
                </mxCell>
                <mxCell id="iWi3dzPBrHiadfpIQgtz-12" value="13. Hiển thị" style="text;html=1;align=center;verticalAlign=middle;resizable=0;points=[];autosize=1;strokeColor=none;fillColor=none;fontSize=14;fontFamily=Times New Roman;" vertex="1" parent="8DMcVyB6DhTLbxl9g71H-1">
                    <mxGeometry x="230" y="576" width="90" height="30" as="geometry"/>
                </mxCell>
                <mxCell id="iWi3dzPBrHiadfpIQgtz-13" value="" style="endArrow=block;dashed=1;endFill=0;endSize=12;html=1;fontFamily=Times New Roman;fontSize=14;" edge="1" parent="8DMcVyB6DhTLbxl9g71H-1">
                    <mxGeometry width="160" relative="1" as="geometry">
                        <mxPoint x="375.84000000000015" y="600" as="sourcePoint"/>
                        <mxPoint x="183" y="600" as="targetPoint"/>
                    </mxGeometry>
                </mxCell>
            </root>
        </mxGraphModel>
    </diagram>
</mxfile>